<?xml version="1.0" standalone="no"?>
<!DOCTYPE svg PUBLIC "-//W3C//DTD SVG 1.1//EN" "http://www.w3.org/Graphics/SVG/1.1/DTD/svg11.dtd" >
<svg>
<metadata>
Created by FontForge 20090622 at Tue Oct 23 10:01:59 2018
 By deploy user
Copyright 1990-1993 Bitstream Inc.  All rights reserved. Russian Edition by Sabina Ltd. &#194;&#169; 1994. All Rights Reserved.
</metadata>
<defs>
<font id="AvantGardeITCbyBT-Medium" horiz-adv-x="1024" >
  <font-face 
    font-family="AvantGarde Medium"
    font-weight="400"
    font-stretch="normal"
    units-per-em="2048"
    panose-1="2 11 6 2 2 2 2 2 2 4"
    ascent="1638"
    descent="-410"
    x-height="1100"
    cap-height="1456"
    bbox="-342 -483 2574 1972"
    underline-thickness="143"
    underline-position="-107"
    unicode-range="U+0020-U+F002"
  />
<missing-glyph horiz-adv-x="1972" 
d="M123 0v1972h1726v-1972h-1726zM1726 123v1726h-1480v-1726h1480z" />
    <glyph glyph-name=".notdef" horiz-adv-x="1972" 
d="M123 0v1972h1726v-1972h-1726zM1726 123v1726h-1480v-1726h1480z" />
    <glyph glyph-name=".null" horiz-adv-x="0" 
 />
    <glyph glyph-name="nonmarkingreturn" horiz-adv-x="586" 
 />
    <glyph glyph-name="space" unicode=" " horiz-adv-x="586" 
 />
    <glyph glyph-name="exclam" unicode="!" horiz-adv-x="594" 
d="M199 360v1096h196v-1096h-196zM199 0v233h196v-233h-196z" />
    <glyph glyph-name="quotedbl" unicode="&#x22;" horiz-adv-x="614" 
d="M524 1436v-555h-139v555h139zM229 1436v-555h-139v555h139z" />
    <glyph glyph-name="numbersign" unicode="#" horiz-adv-x="1575" 
d="M969 858h-260l-93 -264h261zM924 1458l-162 -454h256l164 454h164l-160 -454h301l-51 -146h-303l-93 -262h322l-51 -147h-322l-162 -453h-165l161 453h-258l-162 -453h-165l159 453h-309l53 147h310l92 262h-330l51 146h332l162 454h166z" />
    <glyph glyph-name="dollar" unicode="$" horiz-adv-x="1171" 
d="M136 432h185q0 -57 17 -102t49 -77q60 -60 176 -60q104 0 167 63.5t63 171.5q0 30 -1.5 40.5t-6.5 29.5q-6 31 -21 55q-46 76 -194 112l-36 9q-183 47 -269.5 138t-86.5 237q0 159 82.5 264.5t226.5 132.5v211h179v-213q129 -19 207 -117q41 -51 64 -112t23 -136h-192
q0 40 -15.5 75t-43.5 61q-53 51 -138 51q-90 0 -145 -56t-55 -149q0 -32 9 -60.5t30 -52.5q38 -46 171 -76q81 -17 119 -32q142 -51 216.5 -150.5t74.5 -236.5q0 -175 -90.5 -296.5t-234.5 -142.5v-256h-179v246q-160 21 -255.5 136.5t-95.5 291.5z" />
    <glyph glyph-name="percent" unicode="%" horiz-adv-x="1796" 
d="M240 1126q0 -80 57 -138t141 -58q83 0 140 56.5t57 139.5q0 81 -57 139t-140 58q-82 0 -140 -57t-58 -140zM82 1126q0 72 27 138t78 117t116 77.5t137 26.5t137 -26.5t117 -77.5t78.5 -116.5t26.5 -138.5q0 -72 -26.5 -135.5t-78.5 -118.5q-48 -48 -114.5 -76t-139.5 -28
q-72 0 -137.5 27t-115 77t-77.5 116t-28 138zM1217 1485h141l-776 -1516h-146zM1155 330q0 -83 58 -141t141 -58q80 0 138 57t58 142q0 82 -56.5 139t-139.5 57t-141 -57t-58 -139zM997 330q0 71 27 137t76.5 115.5t116 77.5t139.5 28q71 0 137 -27q34 -14 62.5 -32.5
t54.5 -44.5q48 -49 76 -115.5t28 -138.5t-26 -137t-77.5 -116.5t-117 -78.5t-137.5 -27q-71 0 -137 27t-117 77.5t-78 116t-27 138.5z" />
    <glyph glyph-name="ampersand" unicode="&#x26;" horiz-adv-x="1421" 
d="M569 922q84 43 124 95t40 113q0 63 -42.5 108.5t-104.5 45.5q-64 0 -108 -42.5t-44 -108.5q0 -59 29.5 -105t105.5 -106zM840 412l-301 284q-104 -59 -153.5 -129t-49.5 -157q0 -98 63 -165t158 -67q89 0 159 58t124 176zM993 274q-80 -149 -189.5 -226t-244.5 -77
q-175 0 -301.5 128t-126.5 307q0 125 66 226.5t209 190.5q-85 68 -126.5 141.5t-41.5 159.5q0 150 102 250.5t254 100.5q134 0 235 -103t101 -239q0 -99 -57 -180t-175 -148l222 -209l141 362h213l-199 -499l342 -307l-127 -144z" />
    <glyph glyph-name="quotesingle" unicode="'" horiz-adv-x="317" 
d="M229 1436v-555h-139v555h139z" />
    <glyph glyph-name="parenleft" unicode="(" horiz-adv-x="569" 
d="M516 -190v-238q-209 85 -300 227t-91 396v679q0 231 95.5 380t295.5 231v-244q-100 -51 -142 -134.5t-42 -264.5v-590q0 -207 40.5 -296t143.5 -146z" />
    <glyph glyph-name="parenright" unicode=")" horiz-adv-x="569" 
d="M51 -190q102 55 144.5 146.5t42.5 295.5v590q0 177 -42 262t-145 137v244q202 -83 297.5 -232.5t95.5 -378.5v-679q0 -252 -90.5 -394.5t-302.5 -228.5v238z" />
    <glyph glyph-name="asterisk" unicode="*" 
d="M512 934l-176 -254l-137 94l194 246l-284 78l53 157l272 -94v295h154v-295l274 94l56 -157l-289 -78l196 -244l-135 -96z" />
    <glyph glyph-name="plus" unicode="+" horiz-adv-x="1706" 
d="M924 1221v-541h528v-139h-528v-541h-142v541h-528v139h528v541h142z" />
    <glyph glyph-name="comma" unicode="," horiz-adv-x="586" 
d="M195 -242v125q35 7 53 33q16 26 16 76v20h-69v234h196v-215q0 -119 -47 -185.5t-149 -87.5z" />
    <glyph glyph-name="hyphen" unicode="-" horiz-adv-x="678" 
d="M588 457h-498v184h498v-184z" />
    <glyph glyph-name="period" unicode="." horiz-adv-x="586" 
d="M393 0h-200v246h200v-246z" />
    <glyph glyph-name="slash" unicode="/" horiz-adv-x="569" 
d="M92 -190h-149l479 1675h147z" />
    <glyph glyph-name="zero" unicode="0" horiz-adv-x="1171" 
d="M88 512v430q0 138 20.5 210.5t67.5 133.5q71 95 177 146t233 51q131 0 239 -54t181 -157q39 -56 58 -134q9 -38 14 -84.5t5 -103.5v-444q0 -120 -18.5 -197.5t-60.5 -134.5q-70 -97 -179 -150t-239 -53q-128 0 -231.5 50t-182.5 147q-43 55 -63.5 137t-20.5 207zM305 475
v-22q0 -72 8 -104.5t27 -59.5q36 -53 101 -86q33 -15 67.5 -23t73.5 -8q141 0 211.5 77.5t70.5 233.5v488q0 94 -7.5 128t-27.5 64q-36 56 -102 87.5t-143 31.5q-74 0 -138 -29t-102 -84q-21 -29 -30 -70.5t-9 -125.5v-498z" />
    <glyph glyph-name="one" unicode="1" horiz-adv-x="1171" 
d="M711 0h-213v1284h-254v172h467v-1456z" />
    <glyph glyph-name="two" unicode="2" horiz-adv-x="1171" 
d="M1044 0h-921v203l510 489l8 8q201 194 201 322q0 110 -75 186t-189 76q-121 0 -189 -77q-33 -39 -50 -91.5t-17 -122.5v-16h-199v4q0 227 129.5 364.5t343.5 137.5q189 0 321 -132.5t132 -320.5q0 -107 -49 -201t-162 -200l-453 -426h659v-203z" />
    <glyph glyph-name="three" unicode="3" horiz-adv-x="1171" 
d="M104 446h197q0 -119 79 -201q74 -77 185 -77q119 0 200 81t81 202q0 135 -82 209.5t-234 74.5l-32 -1h-19v197l16 -1h27q110 0 168 45t58 137q0 76 -48 127t-120 51q-81 0 -128 -47q-24 -24 -37.5 -56.5t-13.5 -74.5h-192q0 84 27.5 151t81.5 120q102 102 268 102
q150 0 256 -106t106 -255q0 -91 -33.5 -156.5t-107.5 -115.5q116 -44 179 -146t63 -243q0 -207 -136 -349.5t-335 -142.5q-215 0 -343 126q-64 64 -97.5 151t-33.5 198z" />
    <glyph glyph-name="four" unicode="4" horiz-adv-x="1171" 
d="M932 0h-203v254h-641v186l641 1016h203v-1016h147v-186h-147v-254zM729 440v715l-436 -715h436z" />
    <glyph glyph-name="five" unicode="5" horiz-adv-x="1171" 
d="M78 444h205q15 -123 95.5 -195.5t194.5 -72.5q131 0 219.5 90.5t88.5 227.5q0 135 -86.5 220t-225.5 85q-84 0 -144.5 -31.5t-98.5 -93.5l-181 39l136 743h673v-205h-524l-70 -342q48 43 111 68q64 22 137 22q203 0 343.5 -147.5t140.5 -359.5q0 -223 -151.5 -372
t-381.5 -149q-210 0 -341 127q-66 65 -103 152.5t-37 193.5z" />
    <glyph glyph-name="six" unicode="6" horiz-adv-x="1171" 
d="M616 1456h232l-330 -495q31 12 58.5 18t54.5 6q189 0 324 -143.5t135 -345.5q0 -69 -18.5 -136t-55.5 -133q-68 -125 -179 -190.5t-255 -65.5q-103 0 -193.5 37.5t-160 109.5t-109 163.5t-39.5 185.5q0 188 217 511zM279 498q0 -134 88.5 -228t212.5 -94
q130 0 215.5 87.5t85.5 223.5q0 134 -83.5 222t-211.5 88t-217.5 -88t-89.5 -211z" />
    <glyph glyph-name="seven" unicode="7" horiz-adv-x="1171" 
d="M483 0h-223l555 1255h-618v201h819v-221z" />
    <glyph glyph-name="eight" unicode="8" horiz-adv-x="1171" 
d="M332 440q0 -117 71 -193.5t177 -76.5q110 0 184 75.5t74 190.5q0 120 -70 193t-182 73q-113 0 -183.5 -71.5t-70.5 -190.5zM403 1100q0 -90 48.5 -144.5t132.5 -54.5q85 0 134.5 51.5t49.5 143.5q0 83 -50.5 138.5t-129.5 55.5t-132 -54.5t-53 -135.5zM348 807
q-73 50 -112 125.5t-39 165.5q0 159 111.5 272t273.5 113q168 0 280.5 -111.5t112.5 -275.5q0 -93 -40 -166t-118 -123q109 -48 165 -139.5t56 -221.5q0 -206 -129 -340.5t-331 -134.5q-186 0 -315.5 135.5t-129.5 331.5q0 133 52.5 222.5t162.5 146.5z" />
    <glyph glyph-name="nine" unicode="9" horiz-adv-x="1171" 
d="M891 956q0 136 -88 229t-213 93q-136 0 -219.5 -85t-83.5 -226q0 -136 83.5 -222t213.5 -86q128 0 217.5 87t89.5 210zM555 0h-236l330 494q-28 -11 -57 -18t-55 -7q-191 0 -325 144t-134 345q0 68 18.5 136.5t57.5 136.5q66 121 179 187.5t253 66.5q104 0 193.5 -37
t159.5 -109.5t111 -165.5q20 -47 30 -91t10 -93q0 -186 -210 -501l-5 -8z" />
    <glyph glyph-name="colon" unicode=":" horiz-adv-x="592" 
d="M397 807h-202v246h202v-246zM397 0h-202v246h202v-246z" />
    <glyph glyph-name="semicolon" unicode=";" horiz-adv-x="592" 
d="M397 807h-200v246h200v-246zM199 -242v125q35 7 53 33q8 13 12 30t4 44v20h-71v236h200v-217q0 -118 -48 -184t-150 -87z" />
    <glyph glyph-name="less" unicode="&#x3c;" horiz-adv-x="1706" 
d="M1442 1006l-969 -396l969 -393v-154l-1178 484v129l1178 483v-153z" />
    <glyph glyph-name="equal" unicode="=" horiz-adv-x="1706" 
d="M1452 481v-139h-1198v139h1198zM1452 879v-140h-1198v140h1198z" />
    <glyph glyph-name="greater" unicode="&#x3e;" horiz-adv-x="1706" 
d="M1442 676v-129l-1178 -484v154l971 393l-971 396v153z" />
    <glyph glyph-name="question" unicode="?" horiz-adv-x="995" 
d="M348 0v236h197v-236h-197zM349 381q0 103 36.5 198t103.5 177q22 27 70 73q121 119 121 226q0 104 -65.5 169.5t-172.5 65.5q-97 0 -159 -69q-31 -36 -47.5 -81.5t-16.5 -102.5l-196 -1q0 98 31.5 178t94.5 145q123 126 308 126q186 0 311 -122t125 -304
q0 -167 -174 -350l-14 -14q-87 -90 -118 -158q-17 -37 -27 -75.5t-10 -80.5h-201z" />
    <glyph glyph-name="at" unicode="@" horiz-adv-x="2048" 
d="M1284 854l57 115h132l-146 -576l-6 -31l-2 -28q0 -45 25.5 -69.5t74.5 -24.5q25 0 50 6t52 20q53 27 107 76q78 73 124 185t46 235q0 259 -190.5 420t-499.5 161q-134 0 -247 -27.5t-210 -86.5q-189 -113 -295 -299t-106 -410q0 -177 61 -307.5t193 -230.5
q99 -76 236 -118t288 -42q169 0 327 48t294 142l55 -82q-145 -109 -313 -166t-351 -57q-192 0 -349.5 47t-278.5 140q-152 116 -229 274t-77 354q0 166 51.5 312.5t151.5 269.5q146 177 352 269.5t455 92.5q161 0 309 -45t254 -127q127 -98 196 -230t69 -284
q0 -175 -63.5 -314.5t-184.5 -236.5q-31 -25 -70 -46.5t-80 -36.5q-82 -29 -166 -29q-99 0 -149.5 39t-50.5 118v19q-54 -88 -128.5 -131t-172.5 -43q-153 0 -233.5 85t-80.5 247q0 233 138 393t339 160q43 0 78.5 -9t66.5 -29q60 -36 97 -112zM1190 475l59 236
q-16 86 -68 135t-130 49q-138 0 -232 -130t-94 -319q0 -105 48 -162t138 -57q96 0 174 69t105 179z" />
    <glyph glyph-name="A" unicode="A" horiz-adv-x="1233" 
d="M813 629l-205 553l-209 -553h414zM324 424l-164 -424h-223l569 1456h205l569 -1456h-231l-160 424h-565z" />
    <glyph glyph-name="B" unicode="B" horiz-adv-x="1053" 
d="M336 846h67q162 0 232 49.5t70 163.5q0 99 -63.5 148.5t-192.5 49.5h-113v-411zM334 197h166q144 0 214 54t70 169q0 122 -72.5 187t-211.5 65h-166v-475zM440 1456q232 0 353.5 -102.5t121.5 -296.5q0 -91 -39.5 -159.5t-115.5 -113.5q106 -31 168.5 -122.5t62.5 -217.5
q0 -104 -37.5 -192t-105.5 -148q-64 -54 -148.5 -79t-236.5 -25h-336v1456h313z" />
    <glyph glyph-name="C" unicode="C" horiz-adv-x="1540" 
d="M1452 365q-94 -190 -262 -292t-389 -102q-163 0 -301.5 63t-249.5 187q-93 102 -141 234t-48 282q0 153 58 289.5t170 247.5q104 103 234 157t280 54q224 0 393 -105.5t256 -300.5h-248q-68 95 -172 145t-231 50q-101 0 -196 -39.5t-165 -112.5q-76 -77 -117.5 -179
t-41.5 -208q0 -117 38 -217t109 -174q75 -78 173 -121q49 -21 98.5 -32t101.5 -11q127 0 226 47.5t165 137.5h260z" />
    <glyph glyph-name="D" unicode="D" horiz-adv-x="1384" 
d="M322 195h256q243 0 384.5 141.5t141.5 384.5q0 251 -150.5 393.5t-414.5 142.5h-217v-1062zM526 0h-409v1456h469q327 0 529 -203.5t202 -529.5q0 -187 -75.5 -340t-217.5 -254q-96 -69 -204.5 -99t-293.5 -30z" />
    <glyph glyph-name="E" unicode="E" horiz-adv-x="1014" 
d="M883 0h-756v1456h756v-194h-545v-435h545v-190h-545v-436h545v-201z" />
    <glyph glyph-name="F" unicode="F" horiz-adv-x="977" 
d="M123 0v1456h717v-194h-508v-435h508v-190h-508v-637h-209z" />
    <glyph glyph-name="G" unicode="G" horiz-adv-x="1612" 
d="M643 735h901q0 -167 -56.5 -304.5t-164.5 -248.5q-206 -211 -522 -211q-163 0 -301.5 63t-249.5 187q-93 102 -141 234t-48 282q0 153 57.5 290t170.5 247q103 103 236 157t292 54q222 0 388 -103t251 -295h-260q-71 92 -171.5 139.5t-223.5 47.5q-101 0 -196 -39.5
t-165 -112.5q-76 -77 -117.5 -179t-41.5 -208q0 -117 38 -217t109 -174q75 -78 173 -121q49 -21 98.5 -32t101.5 -11q165 0 291.5 88t210.5 262h-660v205z" />
    <glyph glyph-name="H" unicode="H" horiz-adv-x="1270" 
d="M338 0h-211v1456h211v-618h594v618h211v-1456h-211v631h-594v-631z" />
    <glyph glyph-name="I" unicode="I" horiz-adv-x="465" 
d="M338 0h-211v1456h211v-1456z" />
    <glyph glyph-name="J" unicode="J" horiz-adv-x="905" 
d="M788 500q0 -152 -14 -225.5t-49 -127.5q-54 -83 -143 -129.5t-203 -46.5q-170 0 -272 96q-50 49 -76.5 114.5t-26.5 147.5l208 1q10 -81 53 -121.5t118 -40.5q109 0 152 66.5t43 293.5v928h210v-956z" />
    <glyph glyph-name="K" unicode="K" horiz-adv-x="1118" 
d="M346 723l549 733h254l-565 -723l551 -733h-265zM338 0h-211v1456h211v-1456z" />
    <glyph glyph-name="L" unicode="L" horiz-adv-x="858" 
d="M815 0h-688v1456h211v-1255h477v-201z" />
    <glyph glyph-name="M" unicode="M" horiz-adv-x="1724" 
d="M330 0h-203v1456h313l422 -1126l422 1126h309v-1456h-198l14 1264l-473 -1264h-150l-471 1264z" />
    <glyph glyph-name="N" unicode="N" horiz-adv-x="1384" 
d="M338 0h-211v1456h217l715 -1102l-10 1102h208v-1456h-202l-731 1135z" />
    <glyph glyph-name="O" unicode="O" horiz-adv-x="1612" 
d="M281 735q0 -117 38 -217t109 -174q75 -78 173 -121q49 -21 98.5 -32t101.5 -11q225 0 377.5 160.5t152.5 398.5q0 102 -36.5 193t-106.5 168q-81 87 -177 130.5t-210 43.5q-101 0 -196 -39.5t-165 -112.5q-76 -77 -117.5 -179t-41.5 -208zM61 737q0 153 57.5 290
t170.5 247q104 103 234 157t280 54q152 0 282 -53t240 -160t166.5 -243.5t56.5 -291.5q0 -154 -48 -284.5t-144 -235.5q-112 -121 -252 -183.5t-303 -62.5t-301.5 63t-249.5 187q-93 102 -141 234t-48 282z" />
    <glyph glyph-name="P" unicode="P" horiz-adv-x="1053" 
d="M336 780h153q161 0 235.5 57t74.5 181q0 122 -74.5 183t-228.5 61h-160v-482zM336 0h-209v1456h338q75 0 126.5 -3t90.5 -11q76 -14 131 -47q90 -53 144.5 -151.5t54.5 -213.5q0 -203 -137 -323.5t-371 -120.5h-168v-586z" />
    <glyph glyph-name="Q" unicode="Q" horiz-adv-x="1612" 
d="M1180 344q78 88 114.5 181.5t36.5 213.5q0 101 -36.5 194t-106.5 167q-79 87 -175.5 130.5t-211.5 43.5q-101 0 -196 -39.5t-165 -112.5q-39 -39 -69 -84t-51 -98q-41 -103 -41 -213q0 -16 1 -34.5t4 -36l7 -39.5t10 -42q48 24 105.5 36t134.5 12q162 0 327 -72t312 -207
zM1020 225q-110 101 -239.5 156t-262.5 55q-36 0 -74 -6q-16 -2 -33.5 -6t-35.5 -10q77 -109 192.5 -171.5t245.5 -62.5q28 0 49 2t50 9q53 11 108 34zM1208 90q-88 -57 -191 -88t-214 -31q-130 0 -246.5 41t-214.5 119q-134 109 -207.5 265.5t-73.5 340.5q0 153 58 289.5
t170 247.5q104 103 234 157t280 54q152 0 282 -53t240.5 -162t167.5 -247.5t57 -303.5q0 -142 -45 -263.5t-137 -226.5q40 -18 80.5 -27t87.5 -9h27v-203h-19q-83 0 -166 24.5t-170 75.5z" />
    <glyph glyph-name="R" unicode="R" horiz-adv-x="1157" 
d="M338 700h108q219 0 326 71t107 216q0 142 -92 207.5t-291 65.5h-158v-560zM338 0h-211v1456h420q261 0 399.5 -120.5t138.5 -350.5q0 -178 -116 -298q-60 -62 -133.5 -95t-163.5 -33l413 -559h-264l-483 676v-676z" />
    <glyph glyph-name="S" unicode="S" horiz-adv-x="973" 
d="M50 420h189q0 -56 17 -100t50 -81q62 -67 161 -67q108 0 174 67.5t66 180.5q0 99 -47.5 152.5t-201.5 101.5l-27 7q-183 48 -265 161q-35 46 -54.5 103t-19.5 120q0 185 111 301.5t291 116.5q166 0 269 -104q53 -53 83.5 -124.5t30.5 -158.5h-197q0 44 -15 77.5t-44 62.5
q-53 54 -134 54q-86 0 -141 -59.5t-55 -153.5q0 -33 9.5 -62t31.5 -54q42 -51 184 -88q22 -6 44 -11q32 -9 56 -18q143 -54 218 -156.5t75 -247.5q0 -209 -120 -339t-318 -130q-186 0 -303.5 124.5t-117.5 324.5z" />
    <glyph glyph-name="T" unicode="T" horiz-adv-x="786" 
d="M500 0h-211v1260h-273v196h756v-196h-272v-1260z" />
    <glyph glyph-name="U" unicode="U" horiz-adv-x="1157" 
d="M113 1456h211v-926q0 -198 59 -275t201 -77q134 0 190.5 78.5t56.5 273.5v926h211v-924q0 -73 -4 -129.5t-13 -97.5q-15 -77 -54 -137q-66 -98 -160 -147.5t-223 -49.5q-72 0 -129 11t-107 36q-96 46 -166 148q-38 55 -55.5 129.5t-17.5 236.5v924z" />
    <glyph glyph-name="V" unicode="V" horiz-adv-x="1161" 
d="M643 0h-125l-561 1456h223l400 -1085l401 1085h221z" />
    <glyph glyph-name="W" unicode="W" horiz-adv-x="1726" 
d="M-31 1456h215l316 -1122l284 1122h158l283 -1122l315 1122h215l-440 -1456h-191l-262 1087l-264 -1087h-188z" />
    <glyph glyph-name="X" unicode="X" horiz-adv-x="1200" 
d="M600 569l-362 -569h-244l485 735l-473 721h246l348 -563l344 563h250l-473 -721l483 -735h-246z" />
    <glyph glyph-name="Y" unicode="Y" horiz-adv-x="1010" 
d="M608 524v-524h-211v537l-446 919h235l320 -700l319 700h234z" />
    <glyph glyph-name="Z" unicode="Z" horiz-adv-x="973" 
d="M932 0h-893v207l637 1044h-596v205h840v-184l-660 -1071h672v-201z" />
    <glyph glyph-name="bracketleft" unicode="[" horiz-adv-x="569" 
d="M510 -252v-162h-385v1870h385v-160h-193v-1548h193z" />
    <glyph glyph-name="backslash" unicode="\" horiz-adv-x="569" 
d="M479 -190l-479 1675h147l480 -1675h-148z" />
    <glyph glyph-name="bracketright" unicode="]" horiz-adv-x="569" 
d="M444 -414h-385v162h191v1548h-191v160h385v-1870z" />
    <glyph glyph-name="asciicircum" unicode="^" horiz-adv-x="2048" 
d="M1116 1458l510 -557h-180l-422 420l-424 -420h-180l510 557h186z" />
    <glyph glyph-name="underscore" unicode="_" 
d="M1024 -340v-143h-1024v143h1024z" />
    <glyph glyph-name="grave" unicode="`" 
d="M655 1241h-120l-285 348h201z" />
    <glyph glyph-name="a" unicode="a" horiz-adv-x="1319" 
d="M266 557q0 -167 110.5 -280t270.5 -113q145 0 257 114t112 265q0 161 -110.5 277t-262.5 116q-157 0 -267 -110t-110 -269zM1006 0v135q-76 -79 -170.5 -119.5t-198.5 -40.5q-247 0 -411.5 165.5t-164.5 414.5q0 117 41 220.5t117 182.5q81 86 180.5 128t225.5 42
q113 0 207.5 -39.5t173.5 -121.5v133h200v-1100h-200z" />
    <glyph glyph-name="b" unicode="b" horiz-adv-x="1319" 
d="M303 543q0 -150 111 -264.5t258 -114.5q158 0 268.5 112.5t110.5 280.5q0 157 -111 268t-266 111q-151 0 -262 -115q-53 -56 -81 -126.5t-28 -151.5zM311 135v-135h-200v1456h198v-489q79 81 176 121t207 40q125 0 224 -41t182 -129q76 -79 117.5 -184t41.5 -219
q0 -250 -164 -415t-413 -165q-105 0 -198.5 40t-170.5 120z" />
    <glyph glyph-name="c" unicode="c" horiz-adv-x="1241" 
d="M1161 375q-69 -197 -204.5 -300.5t-331.5 -103.5q-122 0 -223 42q-50 21 -94.5 52t-86.5 76q-76 81 -121 188q-21 55 -32 109t-11 111q0 113 39 214t117 185q85 91 191 138t227 47q188 0 327 -104t203 -294h-217q-51 101 -133.5 151t-196.5 50q-146 0 -249 -111
t-103 -274q0 -165 104 -275t259 -110q102 0 186.5 54t132.5 155h217z" />
    <glyph glyph-name="d" unicode="d" horiz-adv-x="1319" 
d="M266 557q0 -167 110.5 -280t270.5 -113q145 0 257 114t112 265q0 161 -110.5 277t-262.5 116q-157 0 -267 -110t-110 -269zM1006 0v135q-76 -79 -170.5 -119.5t-198.5 -40.5q-247 0 -411.5 165.5t-164.5 414.5q0 117 41 220.5t117 182.5q81 86 180.5 128t225.5 42
q112 0 207 -39.5t176 -121.5v489h198v-1456h-200z" />
    <glyph glyph-name="e" unicode="e" horiz-adv-x="1245" 
d="M973 655q-36 136 -127 210.5t-219 74.5q-130 0 -224.5 -75.5t-132.5 -209.5h703zM264 477q24 -137 124 -223t237 -86q99 0 179 47t128 133h223q-75 -182 -212 -279.5t-318 -97.5q-122 0 -222.5 42.5t-183.5 129.5q-76 81 -121 188q-21 55 -32 109t-11 111q0 115 39 216
t117 185q82 91 185.5 136t224.5 45q145 0 269 -67t206 -189q23 -35 41 -77.5t30 -87.5q23 -90 23 -204v-31h-926z" />
    <glyph glyph-name="f" unicode="f" horiz-adv-x="569" 
d="M369 0h-197v928h-131v172h125v33q0 167 94 253.5t281 86.5v-183h-17q-87 0 -125.5 -40t-38.5 -134v-16h181v-172h-172v-928z" />
    <glyph glyph-name="g" unicode="g" horiz-adv-x="1319" 
d="M133 -88h211q45 -77 120.5 -117.5t170.5 -40.5q167 0 269 100t102 267v14q-76 -79 -170.5 -119.5t-198.5 -40.5q-247 0 -411.5 165.5t-164.5 414.5q0 117 41 220.5t117 182.5q81 86 180.5 128t225.5 42q112 0 207 -39.5t176 -121.5v133h198v-918q0 -287 -149 -449.5
t-410 -162.5q-188 0 -321.5 89t-192.5 253zM266 557q0 -167 110.5 -280t270.5 -113q145 0 257 114t112 265q0 161 -110.5 277t-262.5 116q-157 0 -267 -110t-110 -269z" />
    <glyph glyph-name="h" unicode="h" horiz-adv-x="1157" 
d="M315 0h-198v1456h198v-481q47 69 124 106t179 37q199 0 310.5 -128t111.5 -359v-631h-198v567q0 183 -62 272t-190 89q-78 0 -138.5 -36t-95.5 -104q-20 -38 -30.5 -98.5t-10.5 -189.5v-500z" />
    <glyph glyph-name="i" unicode="i" horiz-adv-x="432" 
d="M313 1229h-196v227h196v-227zM117 0v1100h196v-1100h-196z" />
    <glyph glyph-name="j" unicode="j" horiz-adv-x="455" 
d="M326 -10q0 -186 -67 -266t-222 -80l-22 1l-21 1v194q79 0 107 28t28 132v57v1043h197v-1110zM326 1229h-197v227h197v-227z" />
    <glyph glyph-name="k" unicode="k" horiz-adv-x="977" 
d="M117 0v1456h196v-866l392 510h231l-404 -522l478 -578h-254l-443 559v-559h-196z" />
    <glyph glyph-name="l" unicode="l" horiz-adv-x="432" 
d="M117 0v1456h196v-1456h-196z" />
    <glyph glyph-name="m" unicode="m" horiz-adv-x="1778" 
d="M795 555q0 200 -57.5 291.5t-180.5 91.5q-128 0 -189 -92t-61 -283v-563h-188v1100h176v-129q53 72 124 109.5t159 37.5q120 0 199 -45t132 -145q50 95 135 142.5t205 47.5q186 0 298 -121.5t112 -324.5v-672h-199v641q0 142 -61 219.5t-172 77.5q-128 0 -184 -83
t-56 -280v-575h-192v555z" />
    <glyph glyph-name="n" unicode="n" horiz-adv-x="1176" 
d="M315 0h-198v1100h190v-125q62 74 137 108.5t170 34.5q216 0 331.5 -127t115.5 -364v-627h-199v584q0 175 -65 259.5t-201 84.5q-146 0 -213.5 -99.5t-67.5 -328.5v-500z" />
    <glyph glyph-name="o" unicode="o" horiz-adv-x="1241" 
d="M258 551q0 -165 104.5 -275t260.5 -110q153 0 256.5 111t103.5 276q0 168 -103.5 276.5t-258.5 108.5q-152 0 -257.5 -110.5t-105.5 -276.5zM53 549q0 116 39 218t118.5 186t184.5 133t217 49q121 0 223 -42.5t185 -127.5q80 -82 124 -187t44 -215q0 -115 -40 -221
t-114 -186q-40 -44 -88.5 -79.5t-100.5 -60.5q-105 -47 -222 -47q-121 0 -223 43.5t-183 128.5q-76 81 -121 188q-21 55 -32 109t-11 111z" />
    <glyph glyph-name="p" unicode="p" horiz-adv-x="1319" 
d="M303 557q0 -162 109.5 -277.5t261.5 -115.5q155 0 266 110.5t111 268.5q0 167 -110 280t-269 113q-145 0 -257 -113.5t-112 -265.5zM309 133v-489h-198v1456h200v-135q75 78 169 118.5t200 40.5q248 0 412.5 -165.5t164.5 -413.5q0 -116 -40.5 -219t-118.5 -185
q-83 -88 -182 -129t-224 -41q-112 0 -207.5 40.5t-175.5 121.5z" />
    <glyph glyph-name="q" unicode="q" horiz-adv-x="1319" 
d="M647 936q-159 0 -269 -113t-110 -280q0 -159 111 -269t266 -110q152 0 261 115q54 56 82 126t28 152q0 152 -111.5 265.5t-257.5 113.5zM1208 -356h-200v489q-77 -80 -173 -122q-48 -20 -99 -30t-109 -10q-128 0 -225 41.5t-181 128.5q-75 80 -117.5 185t-42.5 219
q0 250 164.5 414.5t413.5 164.5q107 0 199 -40t170 -119v135h200v-1456z" />
    <glyph glyph-name="r" unicode="r" horiz-adv-x="592" 
d="M317 0h-198v1100h186v-127q48 72 112.5 108.5t147.5 36.5v-207q-62 0 -111 -21t-80 -58q-57 -68 -57 -220v-612z" />
    <glyph glyph-name="s" unicode="s" horiz-adv-x="797" 
d="M41 356h186q0 -87 48 -143.5t122 -56.5q68 0 113 42t45 109q0 57 -30.5 96.5t-102.5 69.5l-68 26q-116 43 -149 70q-59 47 -87 107.5t-28 136.5q0 133 93.5 227.5t228.5 94.5q141 0 224 -83q43 -42 67 -100t24 -131h-190q0 28 -10.5 52t-29.5 43q-36 34 -94 34
q-52 0 -88 -37t-36 -90q0 -91 160 -151l71 -27q125 -51 179 -126.5t54 -203.5q0 -147 -100 -245.5t-252 -98.5q-153 0 -247 103q-49 54 -76 124t-27 158z" />
    <glyph glyph-name="t" unicode="t" horiz-adv-x="563" 
d="M184 0v920h-155v180h155v356h197v-356h156v-180h-156v-920h-197z" />
    <glyph glyph-name="u" unicode="u" horiz-adv-x="1157" 
d="M1034 0h-190v123q-58 -75 -131.5 -111.5t-165.5 -36.5q-206 0 -321 129t-115 363v633h198v-576q0 -177 63 -266.5t189 -89.5q77 0 137.5 36t98.5 105q20 41 31 100q4 26 7 76t3 111v504h196v-1100z" />
    <glyph glyph-name="v" unicode="v" horiz-adv-x="1014" 
d="M571 0h-149l-418 1100h213l289 -803l297 803h209z" />
    <glyph glyph-name="w" unicode="w" horiz-adv-x="1460" 
d="M729 745l-225 -745h-111l-381 1100h211l226 -727l223 727h121l221 -727l227 727h209l-383 -1100h-111z" />
    <glyph glyph-name="x" unicode="x" horiz-adv-x="934" 
d="M719 0l-254 416l-266 -416h-219l372 571l-329 529h221l229 -377l234 377h229l-348 -522l352 -578h-221z" />
    <glyph glyph-name="y" unicode="y" horiz-adv-x="1049" 
d="M6 1100h213l297 -819l322 819h213l-592 -1456h-209l153 387z" />
    <glyph glyph-name="z" unicode="z" horiz-adv-x="825" 
d="M780 0h-760v160l531 760h-467v180h666v-203l-496 -711h526v-186z" />
    <glyph glyph-name="braceleft" unicode="{" 
d="M866 1327h-41q-119 0 -160.5 -44.5t-41.5 -184.5v-242q0 -159 -44 -226.5t-157 -99.5q112 -27 156.5 -95.5t44.5 -229.5v-242q0 -141 41.5 -185t162.5 -44h39v-148h-43q-107 0 -168 11.5t-104 37.5q-54 33 -78 97q-22 66 -22 211v245q0 149 -55 210t-185 61l-22 -1
l-21 -1v149l23 -1l22 -1q128 0 183 60t55 208v246q0 148 22 210t78 97q44 26 107.5 39t170.5 13h37v-150z" />
    <glyph glyph-name="bar" unicode="|" 
d="M588 1565v-2048h-150v2048h150z" />
    <glyph glyph-name="braceright" unicode="}" 
d="M575 1118v-246q0 -146 54 -207t184 -61l22 1l23 1v-149l-22 1l-21 1q-132 0 -186 -60.5t-54 -210.5v-245q0 -149 -22 -211.5t-78 -96.5q-41 -25 -102 -37t-170 -12h-43v148h39q120 0 162 45t42 186v240q0 161 44.5 228t156.5 97q-111 30 -156 98t-45 228v242
q0 139 -42 184t-162 45h-39v150h37q53 0 95 -3t76 -10q62 -12 107 -39q53 -32 76.5 -96t23.5 -211z" />
    <glyph glyph-name="asciitilde" unicode="~" horiz-adv-x="1706" 
d="M1530 614q-101 -70 -199 -107q-46 -16 -94.5 -25t-95.5 -9t-109 14t-147 44l-34 12l-15 5q-176 60 -273 60q-41 0 -85 -9t-90 -28q-90 -36 -210 -120v155q106 72 202 108t185 36q33 0 62.5 -3t64.5 -11q64 -12 164 -48l47 -17q159 -57 240 -57q87 0 179.5 37t207.5 119
v-156z" />
    <glyph glyph-name="quotesinglbase" unicode="&#x201a;" horiz-adv-x="473" 
d="M135 246h203v-217q0 -125 -46.5 -187.5t-156.5 -89.5v131q38 11 54 34.5t16 66.5v18h-70v244z" />
    <glyph glyph-name="florin" unicode="&#x192;" horiz-adv-x="1171" 
d="M616 -47q0 -101 -28.5 -173.5t-78.5 -118.5q-89 -83 -296 -83l-31 1l-30 1v182h41q112 0 155.5 41t54.5 164l66 752h-242v174h254l15 217q0 101 27 174t74 117q88 82 290 82l44 -1l29 -1l1 -178h-33q-117 0 -162 -39t-57 -170l-17 -201h262v-174h-272z" />
    <glyph glyph-name="quotedblbase" unicode="&#x201e;" horiz-adv-x="807" 
d="M467 246h203v-217q0 -125 -46.5 -187.5t-156.5 -89.5v131q38 11 54 34.5t16 66.5v18h-70v244zM135 246h203v-217q0 -125 -46.5 -187.5t-156.5 -89.5v131q38 11 54 34.5t16 66.5v18h-70v244z" />
    <glyph glyph-name="ellipsis" unicode="&#x2026;" horiz-adv-x="2048" 
d="M442 0h-200v246h200v-246zM1124 0h-200v246h200v-246zM1808 0h-200v246h200v-246z" />
    <glyph glyph-name="dagger" unicode="&#x2020;" 
d="M414 -233v1122h-355v172h355v395h196v-395h355v-172h-355v-1122h-196z" />
    <glyph glyph-name="daggerdbl" unicode="&#x2021;" 
d="M414 -233v393h-355v172h355v557h-355v172h355v395h196v-395h355v-172h-355v-557h355v-172h-355v-393h-196z" />
    <glyph glyph-name="circumflex" unicode="&#x2c6;" 
d="M217 1241l197 348h196l197 -348h-123l-172 229l-174 -229h-121z" />
    <glyph glyph-name="perthousand" unicode="&#x2030;" horiz-adv-x="2654" 
d="M2015 330q0 -83 57 -141t140 -58q82 0 140 58t58 141q0 81 -57.5 138.5t-140.5 57.5q-81 0 -139 -56.5t-58 -139.5zM1855 330q0 71 27.5 136.5t78.5 115.5t117 78t138 28q71 0 137 -27q34 -14 62.5 -32.5t54.5 -44.5q49 -49 76.5 -115.5t27.5 -138.5t-26 -137
t-77.5 -116.5t-117 -78.5t-137.5 -27t-136.5 26.5t-116.5 78t-80 118t-28 136.5zM240 1126q0 -80 57 -138t141 -58q83 0 140 56.5t57 139.5q0 81 -57 139t-140 58q-82 0 -140 -57t-58 -140zM82 1126q0 72 27 138t78 117t116 77.5t137 26.5t137 -26.5t117 -77.5t78.5 -116.5
t26.5 -138.5q0 -72 -26.5 -135.5t-78.5 -118.5q-48 -48 -114.5 -76t-139.5 -28q-72 0 -137.5 27t-115 77t-77.5 116t-28 138zM1217 1485h141l-776 -1516h-146zM1155 330q0 -83 58 -141t141 -58q80 0 138 57t58 142q0 82 -56.5 139t-139.5 57t-141 -57t-58 -139zM997 330
q0 71 27 137t76.5 115.5t116 77.5t139.5 28q71 0 137 -27q34 -14 62.5 -32.5t54.5 -44.5q48 -49 76 -115.5t28 -138.5t-26 -137t-77.5 -116.5t-117 -78.5t-137.5 -27q-71 0 -137 27t-117 77.5t-78 116t-27 138.5z" />
    <glyph glyph-name="Scaron" unicode="&#x160;" horiz-adv-x="973" 
d="M50 420h189q0 -56 17 -100t50 -81q62 -67 161 -67q108 0 174 67.5t66 180.5q0 99 -47.5 152.5t-201.5 101.5l-27 7q-183 48 -265 161q-35 46 -54.5 103t-19.5 120q0 185 111 301.5t291 116.5q166 0 269 -104q53 -53 83.5 -124.5t30.5 -158.5h-197q0 44 -15 77.5t-44 62.5
q-53 54 -134 54q-86 0 -141 -59.5t-55 -153.5q0 -33 9.5 -62t31.5 -54q42 -51 184 -88q22 -6 44 -11q32 -9 56 -18q143 -54 218 -156.5t75 -247.5q0 -209 -120 -339t-318 -130q-186 0 -303.5 124.5t-117.5 324.5zM192 1939h121l174 -227l172 227h123l-197 -348h-196z" />
    <glyph glyph-name="guilsinglleft" unicode="&#x2039;" horiz-adv-x="678" 
d="M524 238h-149l-248 313l248 311h149l-241 -313z" />
    <glyph glyph-name="OE" unicode="&#x152;" horiz-adv-x="2179" 
d="M2048 0h-756v188q-101 -108 -228.5 -162.5t-285.5 -54.5q-156 0 -291 63t-243 187q-88 102 -135.5 234.5t-47.5 281.5q0 155 56 289.5t166 247.5q101 103 227.5 157t269.5 54q159 0 282.5 -52.5t229.5 -164.5v188h756v-194h-545v-435h545v-190h-545v-436h545v-201z
M274 735q0 -113 37.5 -214.5t107.5 -177.5t167 -120q48 -21 95.5 -32t96.5 -11q219 0 366.5 161t147.5 398q0 102 -33.5 192.5t-103.5 172.5q-79 85 -172.5 127.5t-204.5 42.5q-98 0 -187.5 -39t-161.5 -114.5t-113.5 -178t-41.5 -207.5z" />
    <glyph glyph-name="quoteleft" unicode="&#x2018;" horiz-adv-x="473" 
d="M338 991h-203v217q0 125 46.5 187.5t156.5 89.5v-133q-38 -11 -54 -34.5t-16 -66.5v-18h70v-242z" />
    <glyph glyph-name="quoteright" unicode="&#x2019;" horiz-adv-x="473" 
d="M135 1456h203v-217q0 -125 -46.5 -187.5t-156.5 -88.5v131q38 9 54 33t16 67v18h-70v244z" />
    <glyph glyph-name="quotedblleft" unicode="&#x201c;" horiz-adv-x="807" 
d="M338 991h-203v217q0 125 46.5 187.5t156.5 89.5v-133q-38 -11 -54 -34.5t-16 -66.5v-18h70v-242zM670 991h-203v217q0 125 46.5 187.5t156.5 89.5v-133q-38 -11 -54 -34.5t-16 -66.5v-18h70v-242z" />
    <glyph glyph-name="quotedblright" unicode="&#x201d;" horiz-adv-x="807" 
d="M467 1456h203v-217q0 -125 -46.5 -187.5t-156.5 -88.5v131q38 9 54 33t16 67v18h-70v244zM135 1456h203v-217q0 -125 -46.5 -187.5t-156.5 -88.5v131q38 9 54 33t16 67v18h-70v244z" />
    <glyph glyph-name="bullet" unicode="&#x2022;" horiz-adv-x="1208" 
d="M307 762q0 122 87.5 208.5t209.5 86.5q121 0 208 -86.5t87 -208.5t-87.5 -209.5t-209.5 -87.5t-208.5 87.5t-86.5 209.5z" />
    <glyph glyph-name="endash" unicode="&#x2013;" 
d="M0 477v144h1024v-144h-1024z" />
    <glyph glyph-name="emdash" unicode="&#x2014;" horiz-adv-x="2048" 
d="M0 477v144h2048v-144h-2048z" />
    <glyph glyph-name="tilde" unicode="&#x2dc;" 
d="M805 1518q-20 -101 -70.5 -154t-126.5 -53l-31 2l-34 8l-97 27l-26 6l-23 2q-30 0 -52.5 -17.5t-37.5 -52.5h-88q18 100 68 153.5t125 53.5q21 0 32 -2l27 -6l99 -29l28 -6l25 -2q33 0 56 16.5t38 53.5h88z" />
    <glyph glyph-name="trademark" unicode="&#x2122;" horiz-adv-x="1706" 
d="M963 1458l151 -385l141 385h150v-538h-98v444l-166 -444h-56l-174 444v-444h-98v538h150zM694 1458v-80h-172v-458h-108v458h-172v80h452z" />
    <glyph glyph-name="scaron" unicode="&#x161;" horiz-adv-x="797" 
d="M41 356h186q0 -87 48 -143.5t122 -56.5q68 0 113 42t45 109q0 57 -30.5 96.5t-102.5 69.5l-68 26q-116 43 -149 70q-59 47 -87 107.5t-28 136.5q0 133 93.5 227.5t228.5 94.5q141 0 224 -83q43 -42 67 -100t24 -131h-190q0 28 -10.5 52t-29.5 43q-36 34 -94 34
q-52 0 -88 -37t-36 -90q0 -91 160 -151l71 -27q125 -51 179 -126.5t54 -203.5q0 -147 -100 -245.5t-252 -98.5q-153 0 -247 103q-49 54 -76 124t-27 158zM104 1589h121l174 -227l172 227h123l-197 -348h-196z" />
    <glyph glyph-name="guilsinglright" unicode="&#x203a;" horiz-adv-x="678" 
d="M154 238l241 311l-241 313h149l248 -311l-248 -313h-149z" />
    <glyph glyph-name="oe" unicode="&#x153;" horiz-adv-x="2163" 
d="M1890 655q-36 136 -127 210.5t-219 74.5q-129 0 -224.5 -76.5t-131.5 -208.5h702zM260 549q0 -165 104.5 -275t260.5 -110q153 0 256.5 111t103.5 276q0 167 -103 278t-259 111q-154 0 -258.5 -112t-104.5 -279zM1081 211q-87 -119 -201.5 -179.5t-254.5 -60.5
q-123 0 -225 42q-50 21 -94.5 52t-86.5 76q-77 80 -120.5 188t-43.5 218q0 114 38.5 216t119 188.5t184.5 134.5q51 23 105 35t112 12q144 0 263.5 -62.5t203.5 -181.5q91 122 204 183t247 61q255 0 414 -173.5t159 -453.5v-29h-923q24 -141 123 -227t235 -86q51 0 94.5 11
t85.5 36q81 48 129 133h222q-79 -185 -212 -279t-317 -94q-152 0 -263.5 58.5t-197.5 181.5z" />
    <glyph glyph-name="Ydieresis" unicode="&#x178;" horiz-adv-x="1010" 
d="M608 524v-524h-211v537l-446 919h235l320 -700l319 700h234zM592 1650v209h184v-209h-184zM236 1650v209h184v-209h-184z" />
    <glyph glyph-name="nonbreakingspace" unicode="&#xa0;" horiz-adv-x="1171" 
 />
    <glyph glyph-name="exclamdown" unicode="&#xa1;" horiz-adv-x="594" 
d="M199 1096h196v-1096h-196v1096zM199 1456h196v-233h-196v233z" />
    <glyph glyph-name="cent" unicode="&#xa2;" horiz-adv-x="1171" 
d="M1110 549q-54 -170 -164 -273t-266 -129v-229h-168v232q-197 36 -325 198.5t-128 374.5q0 217 122.5 374t330.5 201v211h168v-209q154 -19 264.5 -119t165.5 -272h-209q-46 101 -125 152t-186 51q-140 0 -238 -112t-98 -277q0 -164 99.5 -273.5t246.5 -109.5
q102 0 180 54t121 155h209z" />
    <glyph glyph-name="sterling" unicode="&#xa3;" horiz-adv-x="1171" 
d="M127 -2v197h227q42 42 63 90.5t21 107.5q0 65 -24 126.5t-84 142.5h-219v190h108q-21 48 -33 93q-4 19 -7 43t-3 44q0 182 141 316q70 65 155.5 99t184.5 34q170 0 288.5 -102.5t154.5 -280.5h-215q-25 82 -89 130t-149 48q-113 0 -184.5 -73t-71.5 -187q0 -39 10 -78
t33 -86h449v-190h-320q40 -77 58 -135.5t18 -118.5q0 -65 -18 -119q-10 -30 -22 -51.5t-34 -47.5l19 -3l32 -1h33q144 0 215.5 56t71.5 168v31q-3 15 -4.5 25t-2.5 19.5t-7 34.5h204l10 -56l3 -46q0 -119 -50 -215.5t-139 -149.5q-50 -29 -123 -42t-260 -13h-35h-405z" />
    <glyph glyph-name="currency" unicode="&#xa4;" horiz-adv-x="1241" 
d="M926 887q0 125 -89 214t-214 89q-126 0 -215 -89t-89 -214q0 -127 89 -216t215 -89q125 0 214 90t89 215zM367 1219q56 41 121 63.5t133 22.5q71 0 133.5 -21.5t122.5 -64.5l204 204l82 -80l-205 -206q40 -53 61 -117t21 -135q0 -75 -20 -136.5t-62 -115.5l205 -205
l-82 -82l-204 205q-57 -42 -121 -64t-133 -22q-71 0 -136 21.5t-120 64.5l-205 -205l-82 82l207 205q-41 52 -62.5 116.5t-21.5 135.5q0 68 20.5 131t63.5 121l-207 206l82 80z" />
    <glyph glyph-name="yen" unicode="&#xa5;" horiz-adv-x="1171" 
d="M909 987h170v-143h-239l-82 -166h321v-141h-391v-537h-209v537h-391v141h322l-82 166h-240v143h170l-223 461h233l320 -696l315 696h232z" />
    <glyph glyph-name="brokenbar" unicode="&#xa6;" 
d="M588 408v-758h-150v758h150zM588 1432v-758h-150v758h150z" />
    <glyph glyph-name="section" unicode="&#xa7;" 
d="M657 408q48 27 75.5 70.5t27.5 86.5q0 53 -41 102t-137 101l-217 119q-54 -31 -80.5 -68.5t-26.5 -81.5q0 -55 33 -96.5t145 -105.5zM150 113h174v-11q0 -82 51 -127t141 -45q77 0 124.5 39t47.5 105q0 57 -45.5 105.5t-179.5 121.5l-182 98q-100 55 -150.5 125.5
t-50.5 159.5q0 85 44 156t134 131q-45 38 -68.5 88.5t-23.5 111.5q0 137 93.5 225.5t242.5 88.5q161 0 253.5 -85t92.5 -235v-10h-170q0 78 -49 128t-127 50q-72 0 -115 -36.5t-43 -100.5q0 -53 39 -96t182 -119l176 -94q109 -58 156 -128t47 -171q0 -88 -51 -164.5
t-133 -112.5q50 -43 76 -98t26 -119q0 -138 -102 -228.5t-260 -90.5q-160 0 -255 90.5t-95 243.5v4z" />
    <glyph glyph-name="dieresis" unicode="&#xa8;" 
d="M598 1300v209h184v-209h-184zM242 1300v209h184v-209h-184z" />
    <glyph glyph-name="copyright" unicode="&#xa9;" horiz-adv-x="1706" 
d="M1053 907q-12 76 -65.5 118t-139.5 42q-105 0 -165 -90.5t-60 -249.5q0 -156 62 -244t173 -88q82 0 136 47t69 129h145q0 -62 -28 -115t-80 -96q-98 -81 -248 -81q-181 0 -285 120.5t-104 333.5q0 200 108.5 322.5t286.5 122.5q140 0 235 -75t107 -196h-147zM1493 727
q0 129 -47.5 246.5t-138 207t-207 138.5t-246.5 49q-131 0 -245.5 -47t-204.5 -138t-140.5 -210t-50.5 -246q0 -126 48 -241t142 -210q90 -88 206.5 -138t244.5 -50q125 0 242.5 48.5t212.5 142.5q89 86 136.5 201.5t47.5 246.5zM852 1464q153 0 285.5 -54.5t237.5 -159
t160.5 -240.5t55.5 -283q0 -150 -55 -282q-27 -66 -66.5 -124.5t-91.5 -109.5q-108 -105 -244.5 -163t-281.5 -58q-146 0 -278 55.5t-238.5 162t-163.5 239.5q-27 67 -41 136.5t-14 143.5q0 148 56 282.5t163 241.5q103 103 236.5 158t279.5 55z" />
    <glyph glyph-name="ordfeminine" unicode="&#xaa;" horiz-adv-x="989" 
d="M201 1075q0 -117 82.5 -195.5t201.5 -78.5q110 0 193.5 80t83.5 186q0 114 -83 194q-41 40 -89 60t-107 20q-117 0 -199.5 -77t-82.5 -189zM754 686v94q-55 -53 -127 -81.5t-150 -28.5q-186 0 -308 114.5t-122 290.5q0 79 30 151.5t89.5 132t134.5 89t168 29.5
q86 0 157 -28.5t128 -86.5v94h151v-770h-151z" />
    <glyph glyph-name="guillemotleft" unicode="&#xab;" horiz-adv-x="1032" 
d="M524 238h-149l-248 313l248 311h149l-241 -313zM881 238h-152l-248 313l248 311h152l-244 -313z" />
    <glyph glyph-name="logicalnot" unicode="&#xac;" horiz-adv-x="1706" 
d="M1452 860v-502h-137v363h-1061v139h1198z" />
    <glyph glyph-name="minus" unicode="&#xad;" horiz-adv-x="678" 
d="M588 457h-498v184h498v-184z" />
    <glyph glyph-name="registered" unicode="&#xae;" horiz-adv-x="1706" 
d="M844 1057h-129v-277h133q113 0 162 31.5t49 101.5q0 74 -51 110q-53 34 -164 34zM872 1159q175 0 262 -58t87 -171q0 -89 -49 -147t-142 -78l187 -381h-177l-170 356h-155v-356h-158v835h315zM1493 721q0 135 -45.5 250.5t-137 208t-208.5 139.5q-56 23 -119.5 36
t-128.5 13q-130 0 -244.5 -46.5t-201.5 -135.5q-92 -94 -143.5 -214t-51.5 -245q0 -124 48.5 -240.5t139 -207.5t208 -141t239.5 -50q129 0 247 48.5t212 139.5q90 87 138 201.5t48 243.5zM852 1464q78 0 146.5 -13t139.5 -43q136 -56 240 -163q101 -102 158 -238
q27 -67 41 -136.5t14 -143.5q0 -150 -54.5 -283.5t-161.5 -236.5t-243.5 -160t-279.5 -57q-148 0 -279.5 56t-240.5 165q-104 105 -159.5 238.5t-55.5 277.5q0 145 57 282t166 246q101 102 232 155.5t280 53.5z" />
    <glyph glyph-name="macron" unicode="&#xaf;" 
d="M242 1335v140h540v-140h-540z" />
    <glyph glyph-name="degree" unicode="&#xb0;" horiz-adv-x="674" 
d="M530 1169q0 81 -55 137t-137 56t-138.5 -56t-56.5 -137q0 -80 57 -138t138 -58q80 0 136 57.5t56 138.5zM338 1456q117 0 202 -85t85 -204q0 -117 -84.5 -201.5t-204.5 -84.5q-121 0 -204 83t-83 203t84.5 204.5t204.5 84.5z" />
    <glyph glyph-name="plusminus" unicode="&#xb1;" horiz-adv-x="1706" 
d="M1452 170v-141h-1198v141h1198zM924 1192v-340h528v-139h-528v-340h-142v340h-528v139h528v340h142z" />
    <glyph glyph-name="twosuperior" unicode="&#xb2;" horiz-adv-x="774" 
d="M690 582h-608v120l335 295l4 3q134 117 134 194q0 66 -49.5 112t-124.5 46q-78 0 -124 -46q-22 -23 -33 -54t-11 -74v-11h-131q0 139 86 221t225 82q126 0 212.5 -78.5t86.5 -191.5q0 -64 -32 -120.5t-107 -121.5l-299 -256h436v-120z" />
    <glyph glyph-name="threesuperior" unicode="&#xb3;" horiz-adv-x="774" 
d="M70 850h128q0 -71 52 -121q49 -47 123 -47q78 0 132 48t54 122q0 79 -54.5 124.5t-154.5 45.5h-35l1 119l10 -2h18q73 0 111.5 27t38.5 83q0 45 -32.5 76t-78.5 31q-54 0 -84 -27.5t-35 -78.5h-127q0 50 18.5 90t54.5 72q69 61 177 61q99 0 169.5 -64t70.5 -154
q0 -52 -23 -91.5t-72 -69.5q77 -27 118.5 -88t41.5 -146q0 -124 -90 -209.5t-221 -85.5q-142 0 -226 75q-42 39 -63.5 91t-21.5 119z" />
    <glyph glyph-name="acute" unicode="&#xb4;" 
d="M369 1241l204 348h201l-285 -348h-120z" />
    <glyph glyph-name="mu" unicode="&#xb5;" horiz-adv-x="1151" 
d="M385 1071l-129 -600l-11 -65l-3 -68q0 -100 51.5 -153.5t148.5 -53.5q132 0 208 92t124 312l115 536h178l-156 -732l-4 -20q-18 -87 -18 -112q0 -36 16 -53q17 -15 56 -15h18l14 2l-31 -143l-50 -7l-58 -3q-64 0 -97 28.5t-52 100.5q-45 -67 -113 -99q-33 -16 -71.5 -24
t-86.5 -8q-80 0 -141.5 27t-114.5 89l-110 -530h-181l318 1499h180z" />
    <glyph glyph-name="paragraph" unicode="&#xb6;" 
d="M958 1393h-120v-1393h-111v1393h-176v-1393h-113v782q-83 0 -150.5 26.5t-120.5 75.5q-101 95 -101 246q0 156 107.5 252.5t285.5 96.5h499v-86z" />
    <glyph glyph-name="periodcentered" unicode="&#xb7;" horiz-adv-x="586" 
d="M180 729q0 45 33 78t80 33q45 0 77.5 -32.5t32.5 -78.5q0 -47 -32 -80t-78 -33q-45 0 -79 33t-34 80z" />
    <glyph glyph-name="periodcentered" unicode="&#x2219;" horiz-adv-x="586" 
d="M180 729q0 45 33 78t80 33q45 0 77.5 -32.5t32.5 -78.5q0 -47 -32 -80t-78 -33q-45 0 -79 33t-34 80z" />
    <glyph glyph-name="cedilla" unicode="&#xb8;" 
d="M256 -426v100q73 -17 141 -28t105 -11q60 0 90.5 20.5t30.5 61.5q0 42 -32.5 64t-101.5 22h-31l-22 -1v198h76v-102h29q108 0 165.5 -45.5t57.5 -135.5t-64 -139t-186 -49q-48 0 -113.5 11t-144.5 34z" />
    <glyph glyph-name="onesuperior" unicode="&#xb9;" horiz-adv-x="772" 
d="M469 582h-141v770h-168v104h309v-874z" />
    <glyph glyph-name="ordmasculine" unicode="&#xba;" horiz-adv-x="932" 
d="M195 1071q0 -115 78 -191.5t194 -76.5q115 0 192.5 77t77.5 193t-78 193t-194 77q-114 0 -192 -77.5t-78 -194.5zM41 1071q0 40 7 79t22 75q30 70 89.5 129t138.5 93q38 16 79 25t82 9q88 0 166 -30.5t138.5 -88t94 -131t33.5 -150.5t-30 -153.5t-85 -132.5
q-62 -62 -141.5 -95.5t-167.5 -33.5q-90 0 -167 30t-135.5 86.5t-91 132.5t-32.5 156z" />
    <glyph glyph-name="guillemotright" unicode="&#xbb;" horiz-adv-x="1032" 
d="M152 238l243 311l-243 313h151l248 -311l-248 -313h-151zM508 238l242 311l-242 313h149l248 -311l-248 -313h-149z" />
    <glyph glyph-name="onequarter" unicode="&#xbc;" horiz-adv-x="1819" 
d="M1667 0h-129v141h-403v105l403 569h129v-569h92v-105h-92v-141zM1538 246v401l-274 -401h274zM1276 1485h143l-878 -1514h-146zM449 641h-136v719h-159v96h295v-815z" />
    <glyph glyph-name="onehalf" unicode="&#xbd;" horiz-adv-x="1819" 
d="M1737 0h-580v113l322 274l2 2q129 111 129 182q0 63 -47 105.5t-119 42.5q-75 0 -118.5 -43t-43.5 -119v-10h-125q0 127 81.5 204.5t215.5 77.5q120 0 203.5 -73t83.5 -178q0 -61 -30 -112.5t-103 -113.5l-287 -239h416v-113zM1276 1485h143l-878 -1514h-146zM449 641
h-136v719h-159v96h295v-815z" />
    <glyph glyph-name="threequarters" unicode="&#xbe;" horiz-adv-x="1819" 
d="M1667 0h-129v141h-403v105l403 569h129v-569h92v-105h-92v-141zM1538 246v401l-274 -401h274zM1276 1485h143l-878 -1514h-146zM66 891h124q0 -33 13 -61.5t37 -51.5q48 -43 116 -43q74 0 125 45t51 113q0 75 -51.5 117.5t-146.5 42.5l-21 -1l-12 -1v112q8 0 12 -2h17
q70 0 105.5 26t35.5 77q0 41 -31 70.5t-75 29.5q-48 0 -80 -27q-16 -14 -24.5 -32t-8.5 -41h-121q0 46 17.5 83.5t51.5 68.5q65 57 169 57q96 0 162.5 -60.5t66.5 -142.5q0 -50 -21.5 -86t-68.5 -66q74 -26 114 -83t40 -134q0 -116 -85.5 -196t-211.5 -80q-138 0 -217 70
q-39 35 -60.5 84.5t-21.5 111.5z" />
    <glyph glyph-name="questiondown" unicode="&#xbf;" horiz-adv-x="995" 
d="M637 1075q0 -100 -37 -194.5t-106 -180.5l-36 -40l-32 -32q-123 -122 -123 -229q0 -103 66.5 -168t173.5 -65q97 0 158 68q30 34 46.5 80.5t16.5 102.5l198 1q0 -192 -127 -322q-123 -125 -309 -125q-187 0 -310.5 122t-123.5 304q0 171 175 353l12 12q85 88 119 159
q17 36 26.5 73.5t9.5 80.5h203zM637 1456v-235h-197v235h197z" />
    <glyph glyph-name="Agrave" unicode="&#xc0;" horiz-adv-x="1187" 
d="M779 629l-205 553l-209 -553h414zM290 424l-164 -424h-223l569 1456h205l569 -1456h-231l-160 424h-565z" />
    <glyph glyph-name="Aacute" unicode="&#xc1;" horiz-adv-x="1053" 
d="M334 197h166q144 0 214 54t70 169q0 122 -72.5 187t-211.5 65h-166v-475zM336 1257l-1 -382l68 -9q111 -5 171 -9q109 -8 186 -47q53 -27 94.5 -64t74.5 -85q62 -91 62 -217q0 -104 -37.5 -192t-105.5 -148q-64 -54 -148.5 -79t-236.5 -25h-336v1456l803 -1v-195z" />
    <glyph glyph-name="Acircumflex" unicode="&#xc2;" horiz-adv-x="1053" 
d="M336 846h67q162 0 232 49.5t70 163.5q0 99 -63.5 148.5t-192.5 49.5h-113v-411zM334 197h166q144 0 214 54t70 169q0 122 -72.5 187t-211.5 65h-166v-475zM440 1456q232 0 353.5 -102.5t121.5 -296.5q0 -91 -39.5 -159.5t-115.5 -113.5q106 -31 168.5 -122.5t62.5 -217.5
q0 -104 -37.5 -192t-105.5 -148q-64 -54 -148.5 -79t-236.5 -25h-336v1456h313z" />
    <glyph glyph-name="Atilde" unicode="&#xc3;" horiz-adv-x="858" 
d="M815 1253h-477v-1255h-211v1456h688v-201z" />
    <glyph glyph-name="Adieresis" unicode="&#xc4;" horiz-adv-x="1619" 
d="M253 0v-300h-201v500h141l491 1256h205l489 -1256h153v-500h-204v300h-1074zM786 1182l-371 -982h738z" />
    <glyph glyph-name="Aring" unicode="&#xc5;" horiz-adv-x="954" 
d="M868 0h-756v1456h756v-194h-545v-435h545v-190h-545v-436h545v-201z" />
    <glyph glyph-name="AE" unicode="&#xc6;" horiz-adv-x="1792" 
d="M1751 1456l-565 -723l551 -733h-265l-524 723l549 733h254zM718 723l-524 -723h-265l551 733l-565 723h254zM729 1456h211v-1456h-214z" />
    <glyph glyph-name="Ccedilla" unicode="&#xc7;" horiz-adv-x="1095" 
d="M58 446h197q0 -119 79 -201q74 -77 185 -77q119 0 200 81t81 202q0 135 -82 209.5t-234 74.5l-32 -1h-19v197l16 -1h27q110 0 168 45t58 137q0 76 -48 127t-120 51q-81 0 -128 -47q-24 -24 -37.5 -56.5t-13.5 -74.5h-192q0 84 27.5 151t81.5 120q102 102 268 102
q150 0 256 -106t106 -255q0 -91 -33.5 -156.5t-107.5 -115.5q116 -44 179 -146t63 -243q0 -207 -136 -349.5t-335 -142.5q-215 0 -343 126q-64 64 -97.5 151t-33.5 198z" />
    <glyph glyph-name="Egrave" unicode="&#xc8;" horiz-adv-x="1384" 
d="M1259 0h-208v1120l-720 -1120h-202v1456h208l-1 -1106l706 1106h217v-1456z" />
    <glyph glyph-name="Eacute" unicode="&#xc9;" horiz-adv-x="1384" 
d="M1259 0h-208v1120l-720 -1120h-202v1456h208l-1 -1106l706 1106h217v-1456zM816 1748q0 -50 -35 -85t-85 -35t-85 35t-35 85h-177q0 -123 87 -210t210 -87q122 0 210 87t88 210h-178z" />
    <glyph glyph-name="Ecircumflex" unicode="&#xca;" horiz-adv-x="1208" 
d="M346 723l549 733h254l-565 -723l551 -733h-265zM338 0h-211v1456h211v-1456z" />
    <glyph glyph-name="Edieresis" unicode="&#xcb;" horiz-adv-x="1118" 
d="M1172 0h-221l-401 1085l-400 -1085h-223l561 1456h125z" />
    <glyph glyph-name="Igrave" unicode="&#xcc;" horiz-adv-x="1724" 
d="M335 0h-208v1456h313l422 -1126l422 1126h309v-1456h-198l1 1260l-460 -1260h-150l-451 1256v-1256z" />
    <glyph glyph-name="Iacute" unicode="&#xcd;" horiz-adv-x="1270" 
d="M327 0h-211v1456h211v-618h594v618h211v-1456h-211v631h-594v-631z" />
    <glyph glyph-name="Icircumflex" unicode="&#xce;" horiz-adv-x="1580" 
d="M263 735q0 -117 38 -217t109 -174q75 -78 173 -121q49 -21 98.5 -32t101.5 -11q225 0 377.5 160.5t152.5 398.5q0 102 -36.5 193t-106.5 168q-81 87 -177 130.5t-210 43.5q-101 0 -196 -39.5t-165 -112.5q-76 -77 -117.5 -179t-41.5 -208zM43 737q0 153 57.5 290
t170.5 247q104 103 234 157t280 54q152 0 282 -53t240 -160t166.5 -243.5t56.5 -291.5q0 -154 -48 -284.5t-144 -235.5q-112 -121 -252 -183.5t-303 -62.5t-301.5 63t-249.5 187q-93 102 -141 234t-48 282z" />
    <glyph glyph-name="Idieresis" unicode="&#xcf;" horiz-adv-x="1270" 
d="M1143 1456v-1456h-211v1251h-594v-1251h-211v1456h1016z" />
    <glyph glyph-name="Eth" unicode="&#xd0;" horiz-adv-x="1053" 
d="M336 780h153q161 0 235.5 57t74.5 181q0 122 -74.5 183t-228.5 61h-160v-482zM336 0h-209v1456h338q75 0 126.5 -3t90.5 -11q76 -14 131 -47q90 -53 144.5 -151.5t54.5 -213.5q0 -203 -137 -323.5t-371 -120.5h-168v-586z" />
    <glyph glyph-name="Ntilde" unicode="&#xd1;" horiz-adv-x="1510" 
d="M1452 365q-94 -190 -262 -292t-389 -102q-163 0 -301.5 63t-249.5 187q-93 102 -141 234t-48 282q0 153 58 289.5t170 247.5q104 103 234 157t280 54q224 0 393 -105.5t256 -300.5h-248q-68 95 -172 145t-231 50q-101 0 -196 -39.5t-165 -112.5q-76 -77 -117.5 -179
t-41.5 -208q0 -117 38 -217t109 -174q75 -78 173 -121q49 -21 98.5 -32t101.5 -11q127 0 226 47.5t165 137.5h260z" />
    <glyph glyph-name="Ograve" unicode="&#xd2;" horiz-adv-x="892" 
d="M559 0h-211v1260h-273v196h756v-196h-272v-1260z" />
    <glyph glyph-name="Oacute" unicode="&#xd3;" horiz-adv-x="1055" 
d="M503 4h-240l172 424l-473 1028h235l348 -772l291 772h234z" />
    <glyph glyph-name="Ocircumflex" unicode="&#xd4;" horiz-adv-x="1625" 
d="M1385 1018q0 122 -74.5 183t-228.5 61h-160v-482h153q161 0 235.5 57t74.5 181zM718 780v482h-160q-154 0 -228.5 -61t-74.5 -183q0 -124 74.5 -181t235.5 -57h153zM1051 1456q75 0 126.5 -3t90.5 -11q76 -14 131 -47q90 -53 144.5 -151.5t54.5 -213.5
q0 -203 -137 -323.5t-371 -120.5h-168v-586h-204v586h-168q-234 0 -371 120.5t-137 323.5q0 115 54.5 213.5t144.5 151.5q55 33 128 47t220 14h462z" />
    <glyph glyph-name="Otilde" unicode="&#xd5;" horiz-adv-x="1141" 
d="M559 569l-362 -569h-244l485 735l-473 721h246l348 -563l344 563h250l-473 -721l483 -735h-246z" />
    <glyph glyph-name="Odieresis" unicode="&#xd6;" horiz-adv-x="1431" 
d="M127 0v1456h211v-1258h594v1258h211l1 -1256h156l-1 -500h-211l-2 300h-959z" />
    <glyph glyph-name="multiply" unicode="&#xd7;" horiz-adv-x="1064" 
d="M68 1460h212l1 -442q0 -124 74.5 -181t235.5 -57h153v676h209v-1456h-209v586h-168q-234 0 -371 120.5t-137 323.5v430z" />
    <glyph glyph-name="Oslash" unicode="&#xd8;" horiz-adv-x="1724" 
d="M1589 -2h-1466v1456h208v-1256h429v1256h200v-1256h432l-1 1256h198v-1456z" />
    <glyph glyph-name="Ugrave" unicode="&#xd9;" horiz-adv-x="1894" 
d="M1548 -4l-1425 2v1456h208v-1256h429v1256h200v-1256h432l-1 1256h198l-1 -1254h160v-500h-200v296z" />
    <glyph glyph-name="Uacute" unicode="&#xda;" horiz-adv-x="1152" 
d="M1102 426q0 -115 -54.5 -213.5t-144.5 -151.5q-55 -33 -128 -47t-220 -14h-338l-1 1256h-190v200h400v-586h168q234 0 371 -120.5t137 -323.5zM889 438q0 124 -74.5 181t-235.5 57h-153v-482h160q154 0 228.5 61t74.5 183z" />
    <glyph glyph-name="Ucircumflex" unicode="&#xdb;" horiz-adv-x="1544" 
d="M1012 426q0 -115 -54.5 -213.5t-144.5 -151.5q-55 -33 -128 -47t-220 -14h-338v1456h209v-586h168q234 0 371 -120.5t137 -323.5zM799 438q0 124 -74.5 181t-235.5 57h-153v-482h160q154 0 228.5 61t74.5 183zM1212 0v1460h207v-1460h-207z" />
    <glyph glyph-name="Udieresis" unicode="&#xdc;" horiz-adv-x="1053" 
d="M1012 426q0 -115 -54.5 -213.5t-144.5 -151.5q-55 -33 -128 -47t-220 -14h-338v1456h209v-586h168q234 0 371 -120.5t137 -323.5zM799 438q0 124 -74.5 181t-235.5 57h-153v-482h160q154 0 228.5 61t74.5 183z" />
    <glyph glyph-name="Yacute" unicode="&#xdd;" horiz-adv-x="1532" 
d="M1236 840q-11 57 -31 103q-41 102 -117 179q-34 36 -76.5 65t-88.5 48q-95 39 -196 39q-127 0 -231 -50t-172 -145h-248q87 195 256 300.5t393 105.5q150 0 280 -54t234 -157q57 -56 99 -117.5t71 -131.5q58 -135 58 -288q0 -150 -48 -282t-141 -234
q-111 -124 -249.5 -187t-301.5 -63q-221 0 -389 102t-262 292h260q66 -90 165 -137.5t226 -47.5q100 0 199 43t174 121q71 74 109 175q9 25 18 57t13 60h-512v204h508z" />
    <glyph glyph-name="Thorn" unicode="&#xde;" horiz-adv-x="2088" 
d="M771 735q0 -117 38 -217t109 -174q75 -78 173 -121q49 -21 98.5 -32t101.5 -11q225 0 377.5 160.5t152.5 398.5q0 102 -36.5 193t-106.5 168q-81 87 -177 130.5t-210 43.5q-101 0 -196 -39.5t-165 -112.5q-76 -77 -117.5 -179t-41.5 -208zM556 840q11 91 53 187
q57 137 170 247q104 103 234 157t280 54q152 0 282 -53t240 -160t166.5 -243.5t56.5 -291.5q0 -154 -48 -284.5t-144 -235.5q-112 -121 -252 -183.5t-303 -62.5t-301.5 63t-249.5 187q-93 102 -141 234q-25 68 -34 104.5t-13 76.5h-217v-636h-207v1460h207v-620h221z" />
    <glyph glyph-name="germandbls" unicode="&#xdf;" horiz-adv-x="1094" 
d="M997 0h-211v676l-483 -676h-264l413 559q-90 0 -163.5 33t-133.5 95q-116 120 -116 298q0 230 138.5 350.5t399.5 120.5h420v-1456zM786 700v560h-158q-199 0 -291 -66q-48 -34 -72.5 -85t-24.5 -121q0 -72 28.5 -126.5t83.5 -90.5q107 -71 326 -71h108z" />
    <glyph glyph-name="agrave" unicode="&#xe0;" horiz-adv-x="1319" 
d="M266 557q0 -167 110.5 -280t270.5 -113q145 0 257 114t112 265q0 161 -110.5 277t-262.5 116q-157 0 -267 -110t-110 -269zM1006 0v135q-76 -79 -170.5 -119.5t-198.5 -40.5q-247 0 -411.5 165.5t-164.5 414.5q0 117 41 220.5t117 182.5q81 86 180.5 128t225.5 42
q113 0 207.5 -39.5t173.5 -121.5v133h200v-1100h-200z" />
    <glyph glyph-name="aacute" unicode="&#xe1;" horiz-adv-x="1319" 
d="M1256 543q0 -117 -40.5 -220t-117.5 -183q-81 -86 -180.5 -128t-225.5 -42q-112 0 -207 39.5t-176 121.5v-133h-198v918q0 113 7 195t30.5 151.5t71.5 122.5q72 78 138 104.5t202 38.5q9 1 19 1h16q63 0 137 -21.5l143 -42.5q28 -7 62 -7q50 0 105 15q33 9 142 53
l-1 -210q-55 -21 -119 -33.5t-122 -12.5q-59 0 -89 13q-37 16 -139.5 38.5t-141.5 22.5q-80 0 -112.5 -14t-86.5 -67q-30 -30 -46 -80.5t-16 -163.5v-42v-14q76 79 170.5 119.5t198.5 40.5q247 0 411.5 -165.5t164.5 -414.5zM1051 541q0 167 -110.5 280t-270.5 113
q-145 0 -257 -114t-112 -265q0 -161 110.5 -277t262.5 -116q157 0 267 110t110 269z" />
    <glyph glyph-name="acircumflex" unicode="&#xe2;" horiz-adv-x="1196" 
d="M1145 490q0 -215 -151 -366t-367 -151q-88 0 -170 27.5t-148 79.5v-82h-198v918q0 181 12 255q20 121 87 194q77 84 161 122q91 41 219 41q100 0 187 -17.5t158 -55.5q53 -28 106 -97q71 -92 71 -186q0 -69 -37 -132q-43 -74 -135 -140q96 -74 150.5 -179.5t54.5 -230.5z
M813 1303q-33 21 -93 31t-118 10q-79 0 -135 -25q-49 -22 -104 -76q-31 -31 -42.5 -84t-11.5 -124q0 -18 1 -54.5t1 -53.5l-2 -17q132 100 311 100q18 0 57.5 -7.5t54.5 -7.5q13 0 24 2t19 8q68 43 99 88q27 39 27 78q0 43 -33 84q-23 28 -55 48zM939 490q0 131 -92 223
t-223 92t-223 -92t-92 -223t92 -223t223 -92t223 92t92 223z" />
    <glyph glyph-name="atilde" unicode="&#xe3;" horiz-adv-x="797" 
d="M753 356q0 -87 -27 -158t-76 -124q-94 -103 -247 -103q-152 0 -252 98.5t-100 245.5q0 128 54 203.5t179 126.5l71 27q160 60 160 151q0 53 -36 90t-88 37q-58 0 -94 -34q-19 -19 -29.5 -42.5t-10.5 -52.5h-190q0 72 24 130.5t67 100.5q83 83 224 83q135 0 228.5 -94.5
t93.5 -227.5q0 -76 -28 -136.5t-87 -107.5q-33 -27 -149 -70l-68 -26q-72 -30 -102.5 -69.5t-30.5 -96.5q0 -67 45 -109t113 -42q74 0 122 56.5t48 143.5h186z" />
    <glyph glyph-name="adieresis" unicode="&#xe4;" horiz-adv-x="1319" 
d="M133 -88h211q45 -77 120.5 -117.5t170.5 -40.5q167 0 269 100t102 267v14q-76 -79 -170.5 -119.5t-198.5 -40.5q-247 0 -411.5 165.5t-164.5 414.5q0 117 41 220.5t117 182.5q81 86 180.5 128t225.5 42q112 0 207 -39.5t176 -121.5v133h198v-918q0 -287 -149 -449.5
t-410 -162.5q-188 0 -321.5 89t-192.5 253zM266 557q0 -167 110.5 -280t270.5 -113q145 0 257 114t112 265q0 161 -110.5 277t-262.5 116q-157 0 -267 -110t-110 -269z" />
    <glyph glyph-name="aring" unicode="&#xe5;" horiz-adv-x="1245" 
d="M973 655q-36 136 -128 210q-45 37 -102.5 56t-122.5 19q-123 0 -217.5 -75.5t-132.5 -209.5h703zM264 477q24 -137 124 -223t237 -86q99 0 179 47t128 133h223q-75 -182 -212 -279.5t-318 -97.5q-122 0 -222.5 42.5t-183.5 129.5q-76 81 -121 188q-21 55 -32 109t-11 111
q0 115 39 216t117 185q82 91 185.5 136t224.5 45q145 0 269 -67t206 -189q23 -35 41 -77.5t30 -87.5q23 -90 23 -204v-31h-926z" />
    <glyph glyph-name="ae" unicode="&#xe6;" horiz-adv-x="1457" 
d="M620 1100l208 1l-1 -511l392 510h231l-404 -522l478 -578h-254l-443 559v-559h-208v559l-443 -559h-254l478 578l-404 522h231l392 -510z" />
    <glyph glyph-name="ccedilla" unicode="&#xe7;" horiz-adv-x="797" 
d="M285 471q14 2 32.5 3t40.5 1q24 0 38 -2t30 -6q38 -10 61 -26q18 -12 36 -36q32 -41 32 -98q0 -67 -45 -109t-113 -42q-74 0 -122 56.5t-48 143.5h-186q0 -87 27 -158t76 -124q94 -103 247 -103q152 0 252 98.5t100 245.5q0 128 -54 203q-17 24 -42 44l-56 38
q36 19 58 41q9 9 28.5 33.5t29 61t9.5 77.5q0 133 -93.5 227.5t-228.5 94.5q-141 0 -224 -83q-43 -42 -67 -100t-24 -131h190q0 28 10.5 52t29.5 43q36 34 94 34q52 0 88 -37t36 -90t-31 -91q-39 -47 -118 -60q-9 -2 -28 -3t-20 -1q-16 0 -26.5 1t-18.5 3v-201z" />
    <glyph glyph-name="egrave" unicode="&#xe8;" horiz-adv-x="1157" 
d="M1034 0h-190v123q-58 -75 -131.5 -111.5t-165.5 -36.5q-206 0 -321 129t-115 363v633h198v-576q0 -177 63 -266.5t189 -89.5q77 0 137.5 36t98.5 105q9 19 17 47.5t13 59.5t8 75t3 105v504h196v-1100z" />
    <glyph glyph-name="eacute" unicode="&#xe9;" horiz-adv-x="1147" 
d="M1034 0h-190v123q-58 -75 -131.5 -111.5t-165.5 -36.5q-206 0 -321 129t-115 363v633h198v-576q0 -177 63 -266.5t189 -89.5q77 0 137.5 36t98.5 105q20 41 31 100q4 26 7 76t3 111v504h196v-1100zM345 1311q0 -95 68 -163t163 -68t163 68t68 163h-140q0 -40 -20 -68
q-25 -34 -73 -34q-43 0 -67.5 32t-24.5 70h-137z" />
    <glyph glyph-name="ecircumflex" unicode="&#xea;" horiz-adv-x="1035" 
d="M117 0l-1 1099h196l1 -509l392 510h231l-404 -522l478 -578h-254l-443 559v-559h-196z" />
    <glyph glyph-name="edieresis" unicode="&#xeb;" horiz-adv-x="931" 
d="M973 -1h-209l-297 803l-289 -803h-213l418 1100h149z" />
    <glyph glyph-name="igrave" unicode="&#xec;" horiz-adv-x="1719" 
d="M753 -1l-297 803l-289 -803h-213l418 1100h149l334 -829l316 829h149l441 -1100h-209l-297 803l-289 -803h-213z" />
    <glyph glyph-name="iacute" unicode="&#xed;" horiz-adv-x="1157" 
d="M309 675h531v426l194 -1v-1100h-194v474h-531v-474h-195v1101l195 -1v-425z" />
    <glyph glyph-name="icircumflex" unicode="&#xee;" horiz-adv-x="1241" 
d="M258 551q0 -165 104.5 -275t260.5 -110q153 0 256.5 111t103.5 276q0 168 -103.5 276.5t-258.5 108.5q-152 0 -257.5 -110.5t-105.5 -276.5zM53 549q0 116 39 218t118.5 186t184.5 133t217 49q121 0 223 -42.5t185 -127.5q80 -82 124 -187t44 -215q0 -115 -40 -221
t-114 -186q-40 -44 -88.5 -79.5t-100.5 -60.5q-105 -47 -222 -47q-121 0 -223 43.5t-183 128.5q-76 81 -121 188q-21 55 -32 109t-11 111z" />
    <glyph glyph-name="idieresis" unicode="&#xef;" horiz-adv-x="1176" 
d="M315 0h-198v1100h190v-125q62 74 137 108.5t170 34.5q216 0 331.5 -127t115.5 -364v-627h-199v584q0 175 -65 259.5t-201 84.5q-146 0 -213.5 -99.5t-67.5 -328.5v-500z" />
    <glyph glyph-name="eth" unicode="&#xf0;" horiz-adv-x="1319" 
d="M303 557q0 -162 109.5 -277.5t261.5 -115.5q155 0 266 110.5t111 268.5q0 167 -110 280t-269 113q-145 0 -257 -113.5t-112 -265.5zM309 133v-489h-198v1456h200v-135q75 78 169 118.5t200 40.5q248 0 412.5 -165.5t164.5 -413.5q0 -116 -40.5 -219t-118.5 -185
q-83 -88 -182 -129t-224 -41q-112 0 -207.5 40.5t-175.5 121.5z" />
    <glyph glyph-name="ntilde" unicode="&#xf1;" horiz-adv-x="1241" 
d="M1161 375q-69 -197 -204.5 -300.5t-331.5 -103.5q-122 0 -223 42q-50 21 -94.5 52t-86.5 76q-76 81 -121 188q-21 55 -32 109t-11 111q0 113 39 214t117 185q85 91 191 138t227 47q188 0 327 -104t203 -294h-217q-51 101 -133.5 151t-196.5 50q-146 0 -249 -111
t-103 -274q0 -165 104 -275t259 -110q102 0 186.5 54t132.5 155h217z" />
    <glyph glyph-name="ograve" unicode="&#xf2;" horiz-adv-x="1778" 
d="M795 555q0 200 -57.5 291.5t-180.5 91.5q-128 0 -189 -92t-61 -283v-563h-188v1100h176v-129q53 72 124 109.5t159 37.5q120 0 199 -45t132 -145q50 95 135 142.5t205 47.5q186 0 298 -121.5t112 -324.5v-672h-199v641q0 142 -61 219.5t-172 77.5q-128 0 -184 -83
t-56 -280v-575h-192v555z" />
    <glyph glyph-name="oacute" unicode="&#xf3;" horiz-adv-x="1049" 
d="M6 1100h213l297 -819l322 819h213l-592 -1456h-209l153 387z" />
    <glyph glyph-name="ocircumflex" unicode="&#xf4;" horiz-adv-x="2199" 
d="M1952 538q0 167 -110 280t-269 113q-146 0 -257.5 -113.5t-111.5 -265.5q0 -163 109.5 -278t261.5 -115q155 0 266 110t111 269zM1016 557q0 152 -111.5 265.5t-257.5 113.5q-159 0 -269 -113t-110 -280q0 -159 111 -269t266 -110q152 0 261 115q54 56 82 126t28 152z
M1008 -356v489q-77 -80 -173 -122q-48 -20 -99 -30t-109 -10q-128 0 -225 41.5t-181 128.5q-75 80 -117.5 185t-42.5 219q0 250 164.5 414.5t413.5 164.5q107 0 199 -40t170 -119v135h200l4 -140q78 79 170 119t199 40q249 0 413.5 -164.5t164.5 -414.5q0 -114 -42.5 -219
t-117.5 -185q-84 -87 -181 -128.5t-225 -41.5q-111 0 -207.5 41t-173.5 121v-485z" />
    <glyph glyph-name="otilde" unicode="&#xf5;" horiz-adv-x="940" 
d="M677 0l-254 416l-266 -416h-219l372 571l-329 529h221l229 -377l234 377h229l-348 -522l352 -578h-221z" />
    <glyph glyph-name="odieresis" unicode="&#xf6;" horiz-adv-x="1263" 
d="M999 -27q-23 9 -36 15q-39 19 -59 38.5t-42 59.5q-7 13 -18 37q-58 -75 -131.5 -111.5t-165.5 -36.5q-206 0 -321 129t-115 363v633h198v-576q0 -177 63 -266.5t189 -89.5q77 0 137.5 36t98.5 105q20 41 31 100q4 26 7 76t3 111v504h196l1 -851q7 -25 12 -38
q16 -41 38.5 -57.5t67.5 -25.5q15 -2 41 -5v-387h-195v237z" />
    <glyph glyph-name="divide" unicode="&#xf7;" horiz-adv-x="1157" 
d="M1034 0h-190v503q-58 -75 -131.5 -111.5t-165.5 -36.5q-206 0 -321 129t-115 363v253h198v-196q0 -177 63 -266.5t189 -89.5q77 0 137.5 36t98.5 105q20 41 31 100q4 26 7 76t3 111v124h196v-1100z" />
    <glyph glyph-name="oslash" unicode="&#xf8;" horiz-adv-x="1778" 
d="M1654 0h-176v129q-53 -72 -124 -109.5t-159 -37.5q-120 0 -199 45t-132 145q-50 -95 -135 -142.5t-205 -47.5q-186 0 -298 121.5t-112 324.5v672h199v-641q0 -142 61 -219.5t172 -77.5q128 0 184 83t56 280v575h192v-555q0 -200 57.5 -291.5t180.5 -91.5q128 0 189 92
t61 283v563h188v-1100z" />
    <glyph glyph-name="ugrave" unicode="&#xf9;" horiz-adv-x="1965" 
d="M905 168q-22 -45 -87 -94q-54 -41 -107 -63q-39 -16 -81 -26t-83 -10q-206 0 -321 129t-115 363v633h198v-576q0 -177 63 -266.5t189 -89.5q77 0 137.5 36t98.5 105q20 41 31 100q4 26 7 76t3 111v504h196v-576q0 -177 63 -266.5t189 -89.5q77 0 137.5 36t98.5 105
q20 41 31 100q4 26 7 76t3 111v504h196l1 -851q7 -25 12 -38q16 -41 38.5 -57.5t67.5 -25.5q15 -2 41 -5v-387h-195v237q-23 9 -36 15q-39 19 -59 38.5t-42 59.5q-7 13 -18 37q-58 -75 -131.5 -111.5t-165.5 -36.5q-206 0 -322 129q-17 20 -25 32.5z" />
    <glyph glyph-name="uacute" unicode="&#xfa;" horiz-adv-x="1118" 
d="M1092 434q0 -190 -135 -325t-326 -135q-75 0 -141 21t-124 62v-57h-195v906h-138v195l333 -1v-287q117 81 265 81q191 0 326 -134t135 -326zM897 434q0 110 -77.5 187.5t-188.5 77.5t-188 -77t-77 -188t77 -188t188 -77q110 0 188 77t78 188z" />
    <glyph glyph-name="ucircumflex" unicode="&#xfb;" horiz-adv-x="1495" 
d="M1395 0h-195v1098h195v-1098zM1035 434q0 -190 -135 -325t-326 -135q-75 0 -141 21t-124 62v-57h-195v1101l195 -1v-287q117 81 265 81q191 0 326 -134t135 -326zM840 434q0 110 -77.5 187.5t-188.5 77.5t-188 -77t-77 -188t77 -188t188 -77q110 0 188 77t78 188z" />
    <glyph glyph-name="udieresis" unicode="&#xfc;" horiz-adv-x="1080" 
d="M1035 434q0 -190 -135 -325t-326 -135q-75 0 -141 21t-124 62v-57h-195v1101l195 -1v-287q117 81 265 81q191 0 326 -134t135 -326zM840 434q0 110 -77.5 187.5t-188.5 77.5t-188 -77t-77 -188t77 -188t188 -77q110 0 188 77t78 188z" />
    <glyph glyph-name="yacute" unicode="&#xfd;" horiz-adv-x="1222" 
d="M948 672q-24 85 -86 153q-104 111 -250 111q-114 0 -196.5 -50t-133.5 -151h-217q64 190 203 294t327 104q121 0 227 -47t191 -138q78 -84 117 -184q21 -54 31.5 -106.5t10.5 -109.5q0 -55 -11.5 -107.5t-34.5 -111.5q-45 -107 -121 -188q-81 -86 -181.5 -128t-222.5 -42
q-196 0 -331.5 103.5t-204.5 300.5h217q48 -101 132.5 -155t186.5 -54q155 0 259 110q38 40 60.5 89t31.5 107q-8 -2 -40.5 -3t-77.5 -1q-65 0 -127 1t-111 3v200h222h130z" />
    <glyph glyph-name="thorn" unicode="&#xfe;" horiz-adv-x="1679" 
d="M688 551q0 -81 29 -148t85 -127q105 -110 261 -110q153 0 256 110q52 56 80.5 125.5t28.5 150.5q0 83 -27.5 152t-81.5 125q-103 109 -258 109q-152 0 -259 -111q-55 -58 -83 -123q-31 -71 -31 -153zM504 672q5 28 10 44.5t18 50.5q39 102 118.5 186t184.5 133t217 49
q121 0 223 -42.5t185 -127.5q80 -82 124 -187t44 -215q0 -115 -40 -221t-114 -186q-40 -44 -88.5 -79.5t-100.5 -60.5q-105 -47 -222 -47q-121 0 -223 43q-51 22 -100.5 56.5t-91 79t-66.5 80.5q-29 42 -50 96q-14 35 -22.5 71t-13.5 77q-17 -3 -67 -3q-67 0 -86 0.5
t-34 2.5v-472h-197v1096h197v-424q26 -1 59 -1.5t69 -0.5h40q21 2 27 2z" />
    <glyph glyph-name="ydieresis" unicode="&#xff;" horiz-adv-x="1052" 
d="M763 668q0 111 -77 188t-188 77q-110 0 -188 -77t-78 -188q0 -110 77.5 -187.5t188.5 -77.5t188 77t77 188zM373 234q-147 42 -240 159q-96 121 -96 275q0 190 135 325t326 135q75 0 141 -21t124 -62v57h195v-1101l-195 1v287l-404 -289h-292z" />
    <glyph glyph-name="breve" unicode="&#x2d8;" 
d="M221 1554h109q0 -35 13 -61.5t36 -44.5q44 -33 133 -33t133 34q24 18 36.5 44t12.5 61h109q0 -68 -22 -122t-59 -89q-70 -67 -210 -67q-141 0 -211 67q-36 35 -58 88t-22 123z" />
    <glyph glyph-name="dotaccent" unicode="&#x2d9;" 
d="M416 1294v222h192v-222h-192z" />
    <glyph glyph-name="dotlessi" unicode="&#x131;" horiz-adv-x="432" 
d="M117 0v1100h196v-1100h-196z" />
    <glyph glyph-name="ring" unicode="&#x2da;" 
d="M377 1475q0 -56 39 -96t96 -40q54 0 94.5 39.5t40.5 96.5q0 54 -40 94.5t-95 40.5q-57 0 -96 -39.5t-39 -95.5zM260 1475q0 106 72.5 180t179.5 74q106 0 180 -74t74 -180q0 -105 -74.5 -178.5t-179.5 -73.5t-178.5 73t-73.5 179z" />
    <glyph glyph-name="ogonek" unicode="&#x2db;" 
d="M608 0q-70 -62 -103.5 -116t-33.5 -105q0 -42 21 -60t75 -18h84v-143h-86q-112 0 -168.5 42t-56.5 126q0 66 43 130t143 144h82z" />
    <glyph glyph-name="caron" unicode="&#x2c7;" 
d="M217 1589h121l174 -227l172 227h123l-197 -348h-196z" />
    <glyph glyph-name="Lslash" unicode="&#x141;" horiz-adv-x="883" 
d="M840 0h-688v508l-152 -105v191l152 104v758h208v-625l240 168v-190l-240 -166v-442h480v-201z" />
    <glyph glyph-name="lslash" unicode="&#x142;" horiz-adv-x="487" 
d="M145 0v567l-145 -100v188l145 101v700h197v-588l145 105v-189l-145 -102v-682h-197z" />
    <glyph glyph-name="fraction" unicode="&#x2215;" horiz-adv-x="342" 
d="M539 1485h143l-879 -1514h-145z" />
    <glyph glyph-name="fi" unicode="&#xf001;" horiz-adv-x="991" 
d="M670 0v1100h196v-1100h-196zM362 0h-194v928h-131v172h123v33q0 167 94 253.5t281 86.5v-183h-17q-86 0 -124 -40t-38 -134v-16h179v-172h-173v-928zM866 1229h-196v227h196v-227z" />
    <glyph glyph-name="fl" unicode="&#xf002;" horiz-adv-x="991" 
d="M362 0h-194v928h-133v172h125v33q0 167 94 253.5t281 86.5v-183h-17q-86 0 -124 -40t-38 -134v-16h179v-172h-173v-928zM670 0v1456h196v-1456h-196z" />
    <glyph glyph-name="Zcaron" unicode="&#x17d;" horiz-adv-x="973" 
d="M932 0h-893v207l637 1044h-596v205h840v-184l-660 -1071h672v-201zM192 1939h121l174 -227l172 227h123l-197 -348h-196z" />
    <glyph glyph-name="zcaron" unicode="&#x17e;" horiz-adv-x="825" 
d="M780 0h-760v160l531 760h-467v180h666v-203l-496 -711h526v-186zM119 1589h121l174 -227l172 227h123l-197 -348h-196z" />
    <glyph glyph-name="Cacute" unicode="&#x106;" horiz-adv-x="1540" 
d="M1452 365q-94 -190 -262 -292t-389 -102q-163 0 -301.5 63t-249.5 187q-93 102 -141 234t-48 282q0 153 58 289.5t170 247.5q104 103 234 157t280 54q224 0 393 -105.5t256 -300.5h-248q-68 95 -172 145t-231 50q-101 0 -196 -39.5t-165 -112.5q-76 -77 -117.5 -179
t-41.5 -208q0 -117 38 -217t109 -174q75 -78 173 -121q49 -21 98.5 -32t101.5 -11q127 0 226 47.5t165 137.5h260zM674 1591l204 348h201l-285 -348h-120z" />
    <glyph glyph-name="cacute" unicode="&#x107;" horiz-adv-x="1241" 
d="M1161 375q-69 -197 -204.5 -300.5t-331.5 -103.5q-122 0 -223 42q-50 21 -94.5 52t-86.5 76q-76 81 -121 188q-21 55 -32 109t-11 111q0 113 39 214t117 185q85 91 191 138t227 47q188 0 327 -104t203 -294h-217q-51 101 -133.5 151t-196.5 50q-146 0 -249 -111
t-103 -274q0 -165 104 -275t259 -110q102 0 186.5 54t132.5 155h217zM494 1241l204 348h201l-285 -348h-120z" />
    <glyph glyph-name="Ccaron" unicode="&#x10c;" horiz-adv-x="1540" 
d="M1452 365q-94 -190 -262 -292t-389 -102q-163 0 -301.5 63t-249.5 187q-93 102 -141 234t-48 282q0 153 58 289.5t170 247.5q104 103 234 157t280 54q224 0 393 -105.5t256 -300.5h-248q-68 95 -172 145t-231 50q-101 0 -196 -39.5t-165 -112.5q-76 -77 -117.5 -179
t-41.5 -208q0 -117 38 -217t109 -174q75 -78 173 -121q49 -21 98.5 -32t101.5 -11q127 0 226 47.5t165 137.5h260zM522 1939h121l174 -227l172 227h123l-197 -348h-196z" />
    <glyph glyph-name="ccaron" unicode="&#x10d;" horiz-adv-x="1241" 
d="M1161 375q-69 -197 -204.5 -300.5t-331.5 -103.5q-122 0 -223 42q-50 21 -94.5 52t-86.5 76q-76 81 -121 188q-21 55 -32 109t-11 111q0 113 39 214t117 185q85 91 191 138t227 47q188 0 327 -104t203 -294h-217q-51 101 -133.5 151t-196.5 50q-146 0 -249 -111
t-103 -274q0 -165 104 -275t259 -110q102 0 186.5 54t132.5 155h217zM342 1589h121l174 -227l172 227h123l-197 -348h-196z" />
    <glyph glyph-name="dcroat" unicode="&#x111;" horiz-adv-x="1341" 
d="M266 557q0 -167 111.5 -280t269.5 -113q144 0 256.5 114t112.5 265q0 161 -111 277t-262 116q-155 0 -266 -110t-111 -269zM1006 0v135q-72 -76 -167 -118t-202 -42q-247 0 -411.5 166t-164.5 414q0 242 161 407.5t403 165.5q111 0 206 -39.5t177 -121.5v233h-293v119
h293v137h198v-137h150v-119h-150v-1200h-200z" />
    <glyph glyph-name="Scedilla" unicode="&#x15e;" horiz-adv-x="973" 
d="M50 420h189q0 -56 17 -100t50 -81q62 -67 161 -67q108 0 174 67.5t66 180.5q0 99 -47.5 152.5t-201.5 101.5l-27 7q-183 48 -265 161q-35 46 -54.5 103t-19.5 120q0 185 111 301.5t291 116.5q166 0 269 -104q53 -53 83.5 -124.5t30.5 -158.5h-197q0 44 -15 77.5t-44 62.5
q-53 54 -134 54q-86 0 -141 -59.5t-55 -153.5q0 -33 9.5 -62t31.5 -54q42 -51 184 -88q22 -6 44 -11q32 -9 56 -18q143 -54 218 -156.5t75 -247.5q0 -209 -120 -339t-318 -130q-186 0 -303.5 124.5t-117.5 324.5zM231 -426v100q73 -17 141 -28t105 -11q60 0 90.5 20.5
t30.5 61.5q0 42 -32.5 64t-101.5 22h-31l-22 -1v198h76v-102h29q108 0 165.5 -45.5t57.5 -135.5t-64 -139t-186 -49q-48 0 -113.5 11t-144.5 34z" />
    <glyph glyph-name="scedilla" unicode="&#x15f;" horiz-adv-x="797" 
d="M41 356h186q0 -87 48 -143.5t122 -56.5q68 0 113 42t45 109q0 57 -30.5 96.5t-102.5 69.5l-68 26q-116 43 -149 70q-59 47 -87 107.5t-28 136.5q0 133 93.5 227.5t228.5 94.5q141 0 224 -83q43 -42 67 -100t24 -131h-190q0 28 -10.5 52t-29.5 43q-36 34 -94 34
q-52 0 -88 -37t-36 -90q0 -91 160 -151l71 -27q125 -51 179 -126.5t54 -203.5q0 -147 -100 -245.5t-252 -98.5q-153 0 -247 103q-49 54 -76 124t-27 158zM143 -426v100q73 -17 141 -28t105 -11q60 0 90.5 20.5t30.5 61.5q0 42 -32.5 64t-101.5 22h-31l-22 -1v198h76v-102h29
q108 0 165.5 -45.5t57.5 -135.5t-64 -139t-186 -49q-48 0 -113.5 11t-144.5 34z" />
    <glyph glyph-name="franc" unicode="&#x20a3;" horiz-adv-x="1569" 
d="M123 0v1456h717v-194h-508v-435h508v-190h-508v-637h-209zM1294 0h-198v1100h186v-127q48 72 112.5 108.5t147.5 36.5v-207q-62 0 -111 -21t-80 -58q-57 -68 -57 -220v-612z" />
    <glyph glyph-name="Gbreve" unicode="&#x11e;" horiz-adv-x="1612" 
d="M643 735h901q0 -167 -56.5 -304.5t-164.5 -248.5q-206 -211 -522 -211q-163 0 -301.5 63t-249.5 187q-93 102 -141 234t-48 282q0 153 57.5 290t170.5 247q103 103 236 157t292 54q222 0 388 -103t251 -295h-260q-71 92 -171.5 139.5t-223.5 47.5q-101 0 -196 -39.5
t-165 -112.5q-76 -77 -117.5 -179t-41.5 -208q0 -117 38 -217t109 -174q75 -78 173 -121q49 -21 98.5 -32t101.5 -11q165 0 291.5 88t210.5 262h-660v205zM516 1904h109q0 -35 13 -61.5t36 -44.5q44 -33 133 -33t133 34q24 18 36.5 44t12.5 61h109q0 -68 -22 -122t-59 -89
q-70 -67 -210 -67q-141 0 -211 67q-36 35 -58 88t-22 123z" />
    <glyph glyph-name="gbreve" unicode="&#x11f;" horiz-adv-x="1319" 
d="M133 -88h211q45 -77 120.5 -117.5t170.5 -40.5q167 0 269 100t102 267v14q-76 -79 -170.5 -119.5t-198.5 -40.5q-247 0 -411.5 165.5t-164.5 414.5q0 117 41 220.5t117 182.5q81 86 180.5 128t225.5 42q112 0 207 -39.5t176 -121.5v133h198v-918q0 -287 -149 -449.5
t-410 -162.5q-188 0 -321.5 89t-192.5 253zM266 557q0 -167 110.5 -280t270.5 -113q145 0 257 114t112 265q0 161 -110.5 277t-262.5 116q-157 0 -267 -110t-110 -269zM368 1554h109q0 -35 13 -61.5t36 -44.5q44 -33 133 -33t133 34q24 18 36.5 44t12.5 61h109
q0 -68 -22 -122t-59 -89q-70 -67 -210 -67q-141 0 -211 67q-36 35 -58 88t-22 123z" />
    <glyph glyph-name="Idotaccent" unicode="&#x130;" horiz-adv-x="465" 
d="M338 0h-211v1456h211v-1456zM137 1644v222h192v-222h-192z" />
    <glyph glyph-name="Omega" unicode="&#x3a9;" horiz-adv-x="1565" 
d="M1487 178v-178h-600v178q178 96 276.5 262t98.5 369q0 239 -132.5 384.5t-347.5 145.5q-216 0 -348.5 -145t-132.5 -385q0 -200 99 -366t278 -265v-178h-600v178h319q-157 138 -230 287.5t-73 333.5q0 318 191.5 515t496.5 197q304 0 496 -196.5t192 -505.5
q0 -196 -70.5 -342.5t-232.5 -288.5h320z" />
    <glyph glyph-name="pi" unicode="&#x3c0;" horiz-adv-x="1206" 
d="M1159 913h-182l-105 -487l-23 -120l-7 -68q0 -57 23 -83q24 -24 79 -24l40 2l60 8l-30 -141l-58 -12l-53 -4q-116 0 -177.5 51t-61.5 151q0 48 10 117.5t45 233.5l80 376h-326l-194 -913h-181l195 913h-41q-55 0 -84.5 -32t-38.5 -101h-160q27 165 99 228t237 63h889z
" />
    <glyph glyph-name="partialdiff" unicode="&#x2202;" horiz-adv-x="1059" 
d="M756 621q14 81 22 167.5t8 157.5q0 129 -36.5 194.5t-108.5 65.5q-54 0 -127 -58t-108 -58q-37 0 -60.5 21.5t-23.5 53.5q0 61 73 110.5t172 49.5q180 0 287 -155t107 -418q0 -335 -144.5 -556t-357.5 -221q-150 0 -252.5 108.5t-102.5 270.5q0 198 110.5 326.5
t272.5 128.5q101 0 165.5 -45.5t103.5 -142.5zM707 494q0 116 -43 178.5t-123 62.5q-108 0 -179 -130t-71 -335q0 -116 43 -177.5t123 -61.5q107 0 178.5 130t71.5 333z" />
    <glyph glyph-name="Delta" unicode="&#x2206;" horiz-adv-x="1370" 
d="M1102 178l-418 1084l-418 -1084h836zM797 1473l579 -1473h-1382l579 1473h224z" />
    <glyph glyph-name="product" unicode="&#x220f;" horiz-adv-x="1550" 
d="M156 1473h1237v-1866h-240v1661h-758v-1661h-239v1866z" />
    <glyph glyph-name="c294" unicode="&#x2211;" horiz-adv-x="1380" 
d="M55 1473h1258v-193h-959l672 -717l-694 -764h1007v-192h-1314v149l725 801l-695 739v177z" />
    <glyph glyph-name="c295" unicode="&#x2212;" horiz-adv-x="1706" 
d="M1452 682v-141h-1198v141h1198z" />
    <glyph glyph-name="radical" unicode="&#x221a;" horiz-adv-x="1305" 
d="M1305 1661v-96h-115l-594 -1606h-66l-319 883l-125 -45l-25 80l283 98l256 -709l516 1395h189z" />
    <glyph glyph-name="infinity" unicode="&#x221e;" horiz-adv-x="1706" 
d="M915 559q49 -88 116 -133t151 -45q101 0 165 68t64 172q0 102 -59 168.5t-148 66.5q-81 0 -146 -66.5t-143 -230.5zM793 666q-25 44 -53 76.5t-63 55.5q-67 44 -151 44q-101 0 -165 -67t-64 -171q0 -102 59 -168.5t148 -66.5q80 0 145 65t144 232zM842 737
q67 136 146 202.5t177 66.5q132 0 227 -113t95 -279q0 -174 -83.5 -281.5t-217.5 -107.5q-95 0 -168.5 58.5t-153.5 199.5q-71 -136 -148.5 -199t-172.5 -63q-135 0 -228.5 111.5t-93.5 277.5q0 175 83.5 283t217.5 108q95 0 170 -61t150 -203z" />
    <glyph glyph-name="integral" unicode="&#x222b;" horiz-adv-x="1067" 
d="M311 -262q120 0 120 688l3 165q0 250 28 434t79 303q95 222 297 222q79 0 129.5 -42t50.5 -107q0 -54 -32.5 -85.5t-86.5 -31.5q-42 0 -69 18.5t-41 54.5q-4 11 -11 51q0 36 -20 36q-55 0 -88 -158.5t-33 -460.5q0 -71 -4 -172t-4 -131q0 -227 -30.5 -401t-81.5 -285
q-93 -207 -290 -207q-77 0 -128.5 41.5t-51.5 106.5q0 55 34 88q34 31 95 31q35 0 58 -14.5t38 -42.5q9 -18 14.5 -59.5t24.5 -41.5z" />
    <glyph glyph-name="approxequal" unicode="&#x2248;" horiz-adv-x="1706" 
d="M1530 430q-103 -71 -200 -107q-46 -16 -94 -25t-95 -9q-96 0 -285.5 67.5t-292.5 67.5q-80 0 -172 -36q-44 -18 -97.5 -48.5t-115.5 -73.5v156q106 71 203 108t184 37q113 0 304 -68.5t274 -68.5q89 0 178 36t209 120v-156zM1530 799q-106 -73 -200 -108q-46 -16 -94 -25
t-95 -9q-97 0 -286 68t-292 68q-82 0 -172 -36q-42 -18 -96.5 -48.5t-116.5 -73.5v156q102 70 200 106.5t187 36.5q60 0 133 -16t172 -52q192 -67 273 -67q45 0 86.5 8t88.5 26q86 34 212 121v-155z" />
    <glyph glyph-name="notequal" unicode="&#x2260;" horiz-adv-x="1706" 
d="M1313 1112l-187 -235h326v-136h-416l-205 -262h621v-135h-709l-249 -317l-105 84l184 233h-319v135h408l204 262h-612v136h702l252 317z" />
    <glyph glyph-name="lessequal" unicode="&#x2264;" horiz-adv-x="1706" 
d="M1446 162v-139h-1184v139h1184zM1444 1059l-936 -309l936 -306v-149l-1182 395v121l1182 395v-147z" />
    <glyph glyph-name="greaterequal" unicode="&#x2265;" horiz-adv-x="1706" 
d="M1446 162v-139h-1184v139h1184zM1446 811v-121l-1184 -395v149l938 306l-938 309v147z" />
    <glyph glyph-name="lozenge" unicode="&#x25ca;" horiz-adv-x="1012" 
d="M506 1409l-385 -817l385 -825l385 825zM506 1653l500 -1061l-500 -1069l-500 1069z" />
    <glyph glyph-name="apple" unicode="&#xf000;" horiz-adv-x="1618" 
d="M836 1216l-2 14v23q0 124 95 229t236 132l1 -23l1 -39q0 -131 -103.5 -234.5t-203.5 -103.5h-8l-8 1zM1505 403q-114 -246 -204.5 -342t-204.5 -96q-49 0 -131 33t-123 33q-44 0 -130.5 -33t-127.5 -33q-64 0 -128 44t-130 132q-100 137 -158 295q-27 78 -41 153t-14 148
q0 219 125 356.5t323 137.5q68 0 156.5 -34t122.5 -34q18 0 46 8t75 27q88 35 153 35q111 0 197.5 -39.5t161.5 -124.5q-101 -64 -151 -145.5t-50 -182.5q0 -111 60 -199.5t173 -138.5z" />
    </font>
</defs>
</svg>
